<?xml version="1.0" encoding="UTF-8"?>
<svg version="1.1" xmlns="http://www.w3.org/2000/svg" width="5168" height="680">
<path d="M0 0 C1.07394722 -0.00235223 2.14789443 -0.00470446 3.2543855 -0.00712797 C6.87171931 -0.01381239 10.48901715 -0.01335991 14.10635662 -0.01294994 C16.71866796 -0.01624892 19.3309788 -0.01997456 21.94328898 -0.02409142 C28.38197593 -0.03341154 34.82065601 -0.03733848 41.25934887 -0.03961039 C48.9713417 -0.04257403 56.68332543 -0.05127246 64.39531349 -0.06002467 C83.03679512 -0.08086449 101.67827833 -0.09133853 120.31976889 -0.10015428 C129.14061566 -0.10436184 137.96146175 -0.10958372 146.78230795 -0.11483881 C176.98330617 -0.13272947 207.18430458 -0.14772461 237.38530731 -0.155159 C239.28121222 -0.15563375 241.17711714 -0.15610964 243.07302205 -0.15658666 C244.48330643 -0.15694122 244.48330643 -0.15694122 245.9220814 -0.15730295 C250.68546672 -0.15850414 255.44885204 -0.15971959 260.21223736 -0.16094494 C261.15754225 -0.16118509 262.10284713 -0.16142524 263.07679763 -0.16167267 C293.71654062 -0.16956322 324.35624487 -0.19298979 354.99597094 -0.22550088 C387.39756871 -0.25981861 419.79914382 -0.27951198 452.20076007 -0.28280324 C455.75961094 -0.28322077 459.3184618 -0.28370033 462.87731266 -0.28422642 C463.75358802 -0.28434961 464.62986338 -0.2844728 465.53269254 -0.28459973 C479.61971704 -0.28692943 493.70669646 -0.30257664 507.7937049 -0.32306826 C521.96166472 -0.34335018 536.12957055 -0.3487924 550.29754219 -0.33929763 C558.7079667 -0.33409173 567.11821112 -0.33991689 575.52860962 -0.3618323 C581.15624297 -0.37538443 586.78375297 -0.37422465 592.41138768 -0.36143034 C595.61170539 -0.35456278 598.81161401 -0.35600926 602.01191375 -0.37099043 C618.446733 -0.44313254 634.93506587 -0.22638622 649.767169 7.82172108 C650.74665508 8.33436512 650.74665508 8.33436512 651.74592876 8.85736561 C669.68659947 18.59186106 683.40378355 35.59785469 689.392169 55.13422108 C691.58111372 63.05755285 691.66857017 70.62840498 691.63267803 78.80757618 C691.63355119 80.29202296 691.63530419 81.77646943 691.63785636 83.26091427 C691.64231229 87.32238341 691.63435045 91.38374637 691.62430024 95.44520199 C691.61564266 99.83158773 691.61858753 104.21796775 691.62010479 108.60435963 C691.62115218 116.19823144 691.61489081 123.79206882 691.60362911 131.38593197 C691.58735732 142.36530412 691.58216439 153.34465965 691.57965313 164.32404255 C691.57527866 182.13846371 691.5619763 199.95286652 691.5430479 217.76727772 C691.52468268 235.06968564 691.51052932 252.37208858 691.50203228 269.67450428 C691.50124411 271.27497414 691.50124411 271.27497414 691.50044002 272.90777672 C691.49782989 278.26063849 691.49530249 283.61350029 691.49281621 288.96636212 C691.47209145 333.35566114 691.43687267 377.74494016 691.392169 422.13422108 C689.742169 422.46422108 688.092169 422.79422108 686.392169 423.13422108 C685.60906353 421.84451405 685.60906353 421.84451405 684.81013775 420.52875233 C667.76705788 392.93950436 644.02433129 376.15868807 612.392169 368.13422108 C609.54762783 367.51414266 606.69449708 366.96448806 603.829669 366.44672108 C603.16983013 366.3272411 602.50999126 366.20776112 601.83015728 366.08466053 C592.11231818 364.45002767 582.31380761 363.98643256 572.47401714 363.96686268 C570.92964682 363.9581726 570.92964682 363.9581726 569.3540771 363.94930696 C565.94132301 363.93142442 562.52858506 363.92042889 559.11580181 363.9096117 C556.65413552 363.89842202 554.19247069 363.88690827 551.7308073 363.87509632 C543.68565533 363.83873954 535.64049337 363.81328015 527.595294 363.79047108 C526.91016527 363.78849618 526.22503653 363.78652128 525.51914632 363.78448653 C511.89347409 363.74532226 498.26779207 363.71169447 484.64208126 363.68940449 C481.65724709 363.68443616 478.67241305 363.67939164 475.68757915 363.67426014 C474.94581935 363.67298947 474.20405954 363.6717188 473.43982217 363.67040962 C461.40194801 363.64901122 449.36434523 363.59995809 437.32660785 363.540016 C424.94577635 363.47887608 412.56508522 363.444216 400.18410468 363.43493128 C393.24099969 363.42902703 386.29835735 363.41133582 379.35540295 363.36354542 C372.83154246 363.31867624 366.30831723 363.30937009 359.78427219 363.32417393 C357.39132895 363.3238448 354.99835267 363.31153191 352.60554218 363.2863245 C349.33687947 363.25370689 346.07107823 363.26435259 342.80238628 363.28571033 C341.85724643 363.26600256 340.91210658 363.24629479 339.93832612 363.22598982 C333.6927344 363.32894901 330.55702476 364.89810568 326.11187816 369.28528261 C325.54437413 369.89543231 324.97687011 370.505582 324.392169 371.13422108 C323.78728657 371.75823197 323.18240414 372.38224286 322.55919194 373.02516317 C320.8061678 374.84715869 319.09881895 376.7062493 317.392169 378.57172108 C309.39850879 387.1990072 301.09591786 395.49544573 292.73005962 403.75897694 C287.39437972 409.04215696 282.24043584 414.39823136 277.392169 420.13422108 C276.20206524 421.50443633 274.9994349 422.86429563 273.767169 424.19672108 C272.97439556 425.08037342 272.97439556 425.08037342 272.1656065 425.98187733 C270.392169 427.13422108 270.392169 427.13422108 267.91951275 427.04437733 C264.98138168 425.98628685 263.68087916 424.80064606 261.579669 422.50922108 C259.06571293 419.86000578 256.56426013 417.35710057 253.767169 415.00922108 C249.77069239 411.58141308 246.09285022 407.87388248 242.392169 404.13422108 C237.08015985 398.74883035 237.08015985 398.74883035 231.454669 393.69672108 C227.36592777 390.24381002 223.65505157 386.43326321 219.892169 382.63422108 C214.89419016 377.59269622 209.9013007 372.62454075 204.392169 368.13422108 C203.72913265 367.45482471 203.06609631 366.77542835 202.38296795 366.07544422 C198.16924747 363.34046543 194.74930794 363.60134869 189.8284483 363.68011951 C188.87186825 363.67953541 187.9152882 363.6789513 186.92972088 363.67834949 C183.77490453 363.68113127 180.6210386 363.71222836 177.46638775 363.74359608 C175.27635495 363.75105812 173.08631547 363.75675122 170.89627361 363.76074696 C165.13725065 363.77600608 159.37863237 363.81529077 153.6197691 363.85956287 C147.74122371 363.90050928 141.86261282 363.91875666 135.98396587 363.93890858 C124.45318929 363.98178437 112.92271282 364.05003946 101.392169 364.13422108 C103.19479646 367.20545318 104.80114289 369.78953078 107.439044 372.19281483 C108.32366314 373.00782459 108.32366314 373.00782459 109.22615337 373.8392992 C109.85843853 374.41099842 110.49072369 374.98269764 111.142169 375.57172108 C112.50168963 376.82026043 113.86106049 378.06896289 115.220294 379.31781483 C115.91445415 379.95187244 116.60861431 380.58593006 117.32380962 381.23920155 C120.53485646 384.18114507 123.71262031 387.15832811 126.892169 390.13422108 C128.14199012 391.30107937 129.39199066 392.46774552 130.642169 393.63422108 C183.142169 442.63422108 183.142169 442.63422108 185.01887798 444.38593006 C186.26302969 445.54706266 187.50733195 446.70803396 188.75178814 447.86884022 C191.9675501 450.86884144 195.18027637 453.87199889 198.38826275 456.88031483 C199.37234112 457.8017931 199.37234112 457.8017931 200.37629986 458.74188709 C201.66101978 459.94535864 202.94442481 461.15023565 204.22639751 462.35663319 C208.06902124 465.95725863 211.9864371 469.40074079 216.16951275 472.60687733 C217.392169 474.13422108 217.392169 474.13422108 217.92732525 476.45062733 C217.14737913 480.36174401 214.707413 482.39183222 211.892169 485.00922108 C211.34335064 485.53805897 210.79453228 486.06689686 210.22908306 486.61176014 C206.6676284 490.0186414 203.00451777 493.29891592 199.251544 496.49359608 C196.49996495 498.92145994 193.96570826 501.55172026 191.392169 504.16547108 C188.82911672 506.68847567 186.11871076 509.00984925 183.392169 511.35297108 C181.30879822 513.20847318 179.34935693 515.14645208 177.392169 517.13422108 C174.19187378 520.38452091 170.84992324 523.38146353 167.392169 526.35297108 C165.30879822 528.20847318 163.34935693 530.14645208 161.392169 532.13422108 C158.19187378 535.38452091 154.84992324 538.38146353 151.392169 541.35297108 C149.30879822 543.20847318 147.34935693 545.14645208 145.392169 547.13422108 C142.83226765 549.73404291 140.2243736 552.19690505 137.454669 554.57172108 C134.46415184 557.14087378 131.66100216 559.82739364 128.892169 562.63422108 C126.2043844 565.35863647 123.49400037 567.96682419 120.579669 570.44672108 C116.88714948 573.62992756 113.37285041 576.97293897 109.892169 580.38422108 C109.35100445 580.9041161 108.8098399 581.42401112 108.25227642 581.95966053 C106.90608485 583.29371448 105.64196141 584.70945773 104.392169 586.13422108 C104.392169 587.12422108 104.392169 588.11422108 104.392169 589.13422108 C116.69233633 589.60080177 128.9903509 589.95453018 141.2976141 590.17046452 C147.01512453 590.27419623 152.72651956 590.41442998 158.44050884 590.64301014 C186.79379644 593.12193598 186.79379644 593.12193598 211.54909039 582.23206043 C214.58003125 578.84764432 217.20372407 575.34817625 219.68196392 571.54364491 C221.91400902 568.39902633 224.5367215 566.13274712 227.49989605 563.69507313 C230.302447 561.38337312 232.81650962 558.81632683 235.360919 556.22797108 C235.88552715 555.6995763 236.41013531 555.17118153 236.95064068 554.62677479 C238.60032981 552.96505757 240.24668294 551.30009971 241.892169 549.63422108 C254.74053253 536.62662731 254.74053253 536.62662731 260.88630962 531.42133045 C262.10404744 530.3804884 263.25942067 529.26696941 264.392169 528.13422108 C275.17003993 529.05204464 285.42326462 544.10301835 292.69246197 551.45502186 C294.45480796 553.23564047 296.22029832 555.01310043 297.985919 556.79047108 C298.51012432 557.32297474 299.03432964 557.8554784 299.57441998 558.40411854 C302.31816673 561.16549338 305.11870165 563.75638233 308.10899639 566.24973011 C311.12606141 568.86259215 313.65854987 571.56972526 316.14934063 574.6858263 C322.93476656 582.9111518 328.82493722 588.92009326 339.78281879 590.10980129 C345.78493969 590.39225606 351.7401044 590.28828717 357.7437315 590.11078358 C360.34115226 590.09962437 362.93861839 590.09645663 365.53605938 590.10086536 C371.62599998 590.09221072 377.70984078 590.00428358 383.79827535 589.8759464 C390.74150611 589.73416158 397.68416285 589.69663232 404.62863564 589.6668036 C418.88529924 589.60328525 433.13815231 589.412268 447.392169 589.13422108 C447.06770611 591.03387928 447.06770611 591.03387928 446.392169 593.13422108 C443.58357525 594.73968983 443.58357525 594.73968983 439.954669 596.32172108 C426.88358426 602.39210622 418.40376038 612.17557989 412.470294 625.13031483 C409.16687103 634.33441722 409.00800094 643.46442064 408.829669 653.13422108 C408.78568463 655.27479385 408.73911803 657.4152205 408.68686199 659.5556078 C408.64056509 661.47620975 408.60293218 663.39701474 408.56575298 665.31781483 C408.392169 668.13422108 408.392169 668.13422108 407.392169 669.13422108 C405.12044838 669.23512184 402.84551346 669.26347247 400.57155418 669.26564884 C399.84630644 669.26770148 399.12105869 669.26975411 398.37383375 669.27186894 C395.91261834 669.27758062 393.45145816 669.27607659 390.99023724 669.27466297 C389.22013687 669.27724426 387.4500371 669.28025675 385.67993814 669.28366637 C380.79128364 669.29176807 375.90264379 669.29352771 371.01398337 669.29426384 C365.75059622 669.29610903 360.48721677 669.30365386 355.22383404 669.31039906 C343.70072878 669.32400761 332.17762699 669.33001164 320.65451503 669.33440971 C313.46104562 669.33716913 306.26757757 669.34140604 299.07410908 669.34591389 C279.16457961 669.3581122 259.25505123 669.36840887 239.34551811 669.37178898 C238.07003153 669.37200854 236.79454495 669.37222811 235.48040726 669.37245433 C234.20181828 669.37267261 232.92322931 669.37289089 231.60589522 669.37311578 C229.01487776 669.37355925 226.42386029 669.37400581 223.83284283 669.37445545 C222.54760109 669.37467688 221.26235935 669.37489831 219.93817089 669.37512645 C199.12734312 669.37907174 178.31655042 669.39651504 157.50573619 669.41981497 C136.14841082 669.44353393 114.79110304 669.45599116 93.43376428 669.4571569 C81.43909251 669.4580736 69.44446637 669.4638244 57.44980717 669.48197651 C47.23168545 669.49738514 37.01362345 669.50249361 26.79549231 669.49423841 C21.58294286 669.49033399 16.37051364 669.49125125 11.15797901 669.50529575 C6.38137922 669.51804766 1.60498983 669.51682572 -3.17160972 669.50470504 C-4.89520251 669.50275023 -6.61881027 669.50581647 -8.34238205 669.5145494 C-28.56239973 669.61047197 -45.71797127 664.65471506 -60.795331 650.57172108 C-73.56293161 637.17487465 -78.7775126 620.11714319 -78.73925877 601.88419914 C-78.7413114 600.96919399 -78.74336403 600.05418883 -78.74547887 599.11145625 C-78.75113999 596.04082967 -78.74969271 592.97024807 -78.7482729 589.8996172 C-78.75085704 587.67758617 -78.75387034 585.45555561 -78.7572763 583.23352569 C-78.76534381 577.12337879 -78.76713573 571.01324363 -78.76787376 564.90309203 C-78.76953469 558.99113371 -78.7758531 553.0791815 -78.78195218 547.16722637 C-78.79800095 531.32998254 -78.80391437 515.49273969 -78.80870092 499.65548919 C-78.81103819 492.16019799 -78.81464101 484.66490756 -78.8183963 477.16961696 C-78.83123137 451.50192051 -78.84195015 425.83422448 -78.8453989 400.16652489 C-78.84562053 398.55567717 -78.84584232 396.94482946 -78.84606425 395.33398175 C-78.84628489 393.71928694 -78.84650538 392.10459212 -78.8467257 390.48989731 C-78.84716825 387.25065172 -78.84761537 384.01140612 -78.84806538 380.77216053 C-78.84817477 379.96901782 -78.84828416 379.16587512 -78.84839686 378.33839476 C-78.85202618 352.30602264 -78.8679417 326.27367838 -78.89125574 300.24131693 C-78.91587139 272.70512323 -78.92957257 245.16894546 -78.93076682 217.63274044 C-78.93093827 214.60781729 -78.93115369 211.58289414 -78.93140125 208.557971 C-78.93145702 207.81317401 -78.93151279 207.06837702 -78.93157025 206.30101043 C-78.93271924 194.3329407 -78.94372838 182.36489965 -78.95828831 170.39683959 C-78.97268001 158.35853743 -78.97587525 146.32027188 -78.96784833 134.28196348 C-78.96379443 127.76462113 -78.96485359 121.24735575 -78.97890568 114.73002338 C-78.99166642 108.75686096 -78.99042784 102.78386673 -78.97831497 96.81070446 C-78.97636174 94.65653669 -78.97941895 92.50235692 -78.98815933 90.34820599 C-79.09064437 63.36894556 -74.14083803 41.00871424 -54.607831 21.13422108 C-53.99423725 20.5077367 -53.3806435 19.88125233 -52.748456 19.23578358 C-38.46292642 5.74389453 -19.26942044 -0.0286419 0 0 Z " fill="#E7E5DD" transform="translate(4474.607831001282,5.865778923034668)"/>
<path d="M0 0 C36.96 0 73.92 0 112 0 C113.9375 31.4375 113.9375 31.4375 114.54272461 41.31420898 C114.70409015 43.91651471 114.86561897 46.51881032 115.02734375 49.12109375 C115.06775284 49.78593277 115.10816193 50.45077179 115.14979553 51.13575745 C115.59507078 58.45115047 116.10498844 65.72498388 117 73 C117.52207031 72.20078125 118.04414062 71.4015625 118.58203125 70.578125 C140.28534727 37.95556279 172.6723432 19.92510555 210.5625 12.25 C227.01314822 9.07356122 243.26361806 7.5360407 260 7 C261.29035156 6.95746094 262.58070313 6.91492188 263.91015625 6.87109375 C307.69012651 6.18055794 350.7674181 15.24816693 383.5703125 45.640625 C398.12238054 59.7715721 409.60246478 77.06214691 417 96 C417.52787109 95.16976318 417.52787109 95.16976318 418.06640625 94.32275391 C431.19681781 73.73149165 431.19681781 73.73149165 438 66 C438.81597656 65.05253906 439.63195313 64.10507813 440.47265625 63.12890625 C472.70476402 26.36802812 519.95488288 11.2043631 567.5 7.75 C577.33856172 7.11555255 587.14280539 6.53817894 597 7 C597.91861816 7.04108887 598.83723633 7.08217773 599.78369141 7.12451172 C640.55444342 9.14785806 681.16490198 19.4008722 709.984375 50.1015625 C757.99899383 103.59688256 758.5329449 183.03423999 758.31061552 250.51904876 C758.28871954 257.34870251 758.28462426 264.17833809 758.2812262 271.00802194 C758.27472255 283.17937049 758.25493047 295.35065741 758.22631836 307.52197266 C758.19861752 319.31819361 758.17749789 331.11439751 758.16479492 342.91064453 C758.16399093 343.64987337 758.16318694 344.38910221 758.16235858 345.15073192 C758.15541645 351.58483781 758.14895975 358.01894417 758.14255047 364.45305061 C758.11451647 391.96875857 758.05469915 419.48430217 758 447 C719.72 447 681.44 447 642 447 C641.95101562 430.50773437 641.90203125 414.01546875 641.8515625 397.0234375 C641.81616075 386.55077612 641.78027083 376.07812015 641.7421875 365.60546875 C641.72219501 360.09944709 641.70230018 354.59342511 641.68261719 349.08740234 C641.68014575 348.3974519 641.67767431 347.70750146 641.67512798 346.99664342 C641.63556765 335.90394418 641.60275568 324.81123494 641.57250018 313.71850686 C641.54122397 302.30750426 641.50240533 290.89654955 641.45720994 279.48559248 C641.43210249 273.087569 641.41027589 266.68957446 641.39665604 260.29151535 C641.38369119 254.25212624 641.36148626 248.21283722 641.33261681 242.17350388 C641.32365237 239.97355237 641.31787737 237.7735848 641.31578636 235.57361603 C641.27523019 199.33962183 638.85962074 156.19663951 613 128 C612.37480469 127.29488281 611.74960938 126.58976562 611.10546875 125.86328125 C598.02180647 111.87362199 578.85041719 105.07215276 560.05029297 103.71484375 C556.05131984 103.60023451 552.06208254 103.57734682 548.0625 103.625 C547.01242264 103.63197906 547.01242264 103.63197906 545.94113159 103.63909912 C535.70474935 103.71878013 525.89882622 104.08210351 516 107 C515.32018066 107.19867676 514.64036133 107.39735352 513.93994141 107.60205078 C487.12056618 115.65691376 467.41617639 132.57466817 453.984375 157.1328125 C439.64206901 184.33766276 437.8777217 214.00542397 437.79467773 244.13012695 C437.78508328 246.34876684 437.77507232 248.56740497 437.76467896 250.78604126 C437.73779347 256.77473847 437.71669602 262.76344342 437.69667697 268.75216699 C437.67471576 275.02352808 437.64737694 281.29486574 437.62062073 287.56620789 C437.57647836 298.081156 437.53562055 308.5961132 437.49731445 319.11108398 C437.45787264 329.9353123 437.41641521 340.75952986 437.37231445 351.58374023 C437.36819019 352.59692156 437.36819019 352.59692156 437.36398262 353.63057119 C437.34004366 359.50724538 437.31595335 365.38391895 437.29184818 371.26059246 C437.18848708 396.50704079 437.09505606 421.75351587 437 447 C398.72 447 360.44 447 321 447 C320.95101563 430.50773437 320.90203125 414.01546875 320.8515625 397.0234375 C320.81616075 386.55077612 320.78027083 376.07812015 320.7421875 365.60546875 C320.72219501 360.09944709 320.70230018 354.59342511 320.68261719 349.08740234 C320.68014575 348.3974519 320.67767431 347.70750146 320.67512798 346.99664342 C320.63556765 335.90394418 320.60275568 324.81123494 320.57250018 313.71850686 C320.54122397 302.30750426 320.50240533 290.89654955 320.45720994 279.48559248 C320.43210249 273.087569 320.41027589 266.68957446 320.39665604 260.29151535 C320.38369119 254.25212624 320.36148626 248.21283722 320.33261681 242.17350388 C320.32365237 239.97355237 320.31787737 237.7735848 320.31578636 235.57361603 C320.27519469 199.307903 317.84157051 156.23714016 292 128 C291.09701172 126.95972656 291.09701172 126.95972656 290.17578125 125.8984375 C277.09612773 111.69453703 257.49637345 104.83608752 238.57910156 103.81542969 C206.81765801 102.67787734 178.72848114 107.4329534 154 129 C153.39800781 129.51820313 152.79601563 130.03640625 152.17578125 130.5703125 C127.58244712 153.38650594 118.39415638 189.7183235 117 222 C116.8040558 229.41258338 116.81515422 236.82899036 116.79467773 244.24365234 C116.78508142 246.46243973 116.77507036 248.68122535 116.76467896 250.90000916 C116.73781357 256.88451508 116.71670542 262.86902874 116.69667697 268.85356092 C116.67470314 275.12224683 116.64737058 281.3909094 116.62062073 287.65957642 C116.57649191 298.16854821 116.53563137 308.67752905 116.49731445 319.18652344 C116.45786403 330.00391578 116.41640468 340.82129741 116.37231445 351.63867188 C116.36956495 352.31385809 116.36681544 352.98904431 116.36398262 353.68469071 C116.3400432 359.559164 116.31595309 365.43363667 116.29184818 371.30810928 C116.1885135 396.53871874 116.09506496 421.76935489 116 447 C77.72 447 39.44 447 0 447 C0 299.49 0 151.98 0 0 Z " fill="#E7E5DD" transform="translate(1348,5)"/>
<path d="M0 0 C3.47025514 1.42056137 4.94283718 2.95277528 6.93359375 6.1015625 C7.48869629 6.9670874 8.04379883 7.8326123 8.61572266 8.72436523 C9.21690918 9.68157471 9.8180957 10.63878418 10.4375 11.625 C11.78686072 13.73364892 13.13717454 15.84168814 14.48828125 17.94921875 C14.84698303 18.51151688 15.20568481 19.073815 15.57525635 19.65315247 C19.59234746 25.94807259 23.69571249 32.18570704 27.80032349 38.42376709 C29.59350536 41.14970759 31.38404673 43.87737808 33.17460632 46.6050415 C34.54228509 48.6885029 35.91027236 50.77176147 37.27832031 52.85498047 C41.25139668 58.90546498 45.22241289 64.95730138 49.19354248 71.00906372 C51.37893993 74.33943382 53.56447719 77.66971217 55.75 81 C56.62500067 82.3333329 57.50000067 83.66666623 58.375 85 C58.808125 85.66 59.24125 86.32 59.6875 87 C63.62499982 92.99999973 63.62499982 92.99999973 64.93746948 94.99995422 C65.81257032 96.33344073 66.68767204 97.66692665 67.56277466 99.00041199 C69.74873915 102.33139702 71.93468824 105.66239215 74.12060547 108.9934082 C78.07641428 115.02144552 82.03233846 121.04940698 85.98883057 127.07699585 C95.22152979 141.14273696 104.45060301 155.21082825 113.66955566 169.2855835 C122.55216838 182.84649568 131.44706625 196.39933546 140.34277344 209.95166016 C144.29214411 215.96848054 148.24080359 221.98576764 152.18951416 228.00302124 C154.3763134 231.33536677 156.56315906 234.66768184 158.75 238 C159.62500022 239.33333319 160.50000022 240.66666652 161.375 242 C161.808125 242.66 162.24125 243.32 162.6875 244 C250.6249995 377.99999923 250.6249995 377.99999923 251.93746948 379.99995422 C252.81257032 381.33344073 253.68767204 382.66692665 254.56277466 384.00041199 C256.74873915 387.33139702 258.93468824 390.66239215 261.12060547 393.9934082 C265.07641428 400.02144552 269.03233846 406.04940698 272.98883057 412.07699585 C282.22152979 426.14273696 291.45060301 440.21082825 300.66955566 454.2855835 C309.55216838 467.84649568 318.44706625 481.39933546 327.34277344 494.95166016 C331.29214411 500.96848054 335.24080359 506.98576764 339.18951416 513.00302124 C341.3763134 516.33536677 343.56315906 519.66768184 345.75 523 C346.62500022 524.33333319 347.50000022 525.66666652 348.375 527 C348.808125 527.66 349.24125 528.32 349.6875 529 C365 552.33333333 380.3125 575.66666667 395.625 599 C396.05806961 599.6599144 396.49113922 600.3198288 396.93733215 600.9997406 C397.81289609 602.33393568 398.68845557 603.66813368 399.56401062 605.00233459 C401.74284611 608.32250704 403.92175726 611.64262979 406.10083008 614.96264648 C410.1414312 621.1190426 414.1813342 627.27589301 418.21859741 633.43447876 C420.0914048 636.2912264 421.96463357 639.1476976 423.83789062 642.00415039 C424.71651712 643.34418296 425.59494539 644.68434553 426.47314453 646.0246582 C427.70422172 647.90350618 428.93603973 649.78186672 430.16796875 651.66015625 C430.55987396 652.25865387 430.95177917 652.85715149 431.3555603 653.4737854 C433.49221521 656.73007666 435.65043196 659.9700929 437.83447266 663.19482422 C438.29896317 663.88297714 438.76345367 664.57113007 439.24201965 665.28013611 C440.13867596 666.60652733 441.03915102 667.9303471 441.94389343 669.25123596 C445 673.77743073 445 673.77743073 445 676 C429.93617738 676.37475374 414.87271713 676.65637991 399.80521679 676.82899475 C392.80776309 676.91129949 385.81321455 677.02335507 378.81762695 677.20703125 C372.06112219 677.38434458 365.30762999 677.47664145 358.54894447 677.51803589 C355.97579867 677.54751627 353.40281113 677.6050941 350.8309536 677.69168091 C331.18798898 678.32646989 331.18798898 678.32646989 325.85896111 674.43755341 C322.32547641 670.71412383 319.99555353 666.55192001 317.89608383 661.89791107 C316.6707079 659.30255731 315.06323565 657.0640023 313.35546875 654.765625 C312.83146484 654.01796875 312.30746094 653.2703125 311.76757812 652.5 C311.24615234 651.7575 310.72472656 651.015 310.1875 650.25 C308.99347061 648.54688831 307.79946076 646.8437629 306.60546875 645.140625 C306.00911621 644.29048828 305.41276367 643.44035156 304.79833984 642.56445312 C301.86275016 638.37826875 298.93156391 634.18900408 296 630 C294.83335519 628.33331803 293.6666885 626.66665138 292.5 625 C276.16666667 601.66666667 259.83333333 578.33333333 243.5 555 C242.954646 554.22097824 242.40929199 553.44195648 241.84741211 552.639328 C240.68395021 550.97713387 239.52067496 549.31480906 238.35766602 547.65229797 C235.49209493 543.55660439 232.62364538 539.46301929 229.74609375 535.37573242 C221.35687671 523.44764888 213.1374863 511.41338982 205 499.3125 C203.72402668 497.41792272 202.44798377 495.5233923 201.171875 493.62890625 C193.3155584 481.95941817 185.4948553 470.26661914 177.70501709 458.55267334 C168.93287762 445.36303382 160.07567201 432.23137608 151.21142578 419.10351562 C143.86013052 408.21579463 136.52521816 397.31878085 129.25683594 386.37548828 C121.14296652 374.17888489 112.92737677 362.05033461 104.7265625 349.91210938 C98.19236738 340.23738329 91.68814721 330.54374801 85.21954346 320.82504272 C79.49167454 312.22482691 73.71048399 303.66102043 67.92425537 295.1000061 C57.71150989 279.98736695 47.53782103 264.84994409 37.44342041 249.6579895 C31.50668299 240.72376806 25.53196799 231.81696987 19.5078125 222.94140625 C18.88035126 222.01602554 18.25289001 221.09064484 17.60641479 220.13722229 C14.53608302 215.60947717 11.46122756 211.08493254 8.37841797 206.56567383 C7.272915 204.93714542 6.16759907 203.30849002 5.0625 201.6796875 C4.2910112 200.55434349 4.2910112 200.55434349 3.50393677 199.40626526 C0 194.2270831 0 194.2270831 0 192 C-0.66 192 -1.32 192 -2 192 C-2.24234375 192.53496094 -2.4846875 193.06992188 -2.734375 193.62109375 C-4.32908102 196.61855043 -6.26302567 199.31863936 -8.25 202.0625 C-8.68401123 202.66610352 -9.11802246 203.26970703 -9.56518555 203.89160156 C-13.86854078 209.85759971 -18.24200447 215.77216831 -22.61425781 221.68774414 C-26.61148391 227.10016066 -30.56962591 232.53888021 -34.5 238 C-41.8399468 248.19362711 -49.30454712 258.2940177 -56.77050781 268.39550781 C-63.05501735 276.90093735 -69.32019635 285.41808621 -75.5 294 C-82.84024221 304.19341866 -90.30454358 314.29401291 -97.77050781 324.39550781 C-104.05501735 332.90093735 -110.32019635 341.41808621 -116.5 350 C-123.84024221 360.19341866 -131.30454358 370.29401291 -138.77050781 380.39550781 C-145.05501735 388.90093735 -151.32019635 397.41808621 -157.5 406 C-164.84024221 416.19341866 -172.30454358 426.29401291 -179.77050781 436.39550781 C-186.59747382 445.63509571 -193.38835097 454.89753926 -200.09912109 464.22192383 C-204.0901267 469.76000464 -208.12976312 475.26067067 -212.1875 480.75 C-217.87371633 488.44269915 -223.47243846 496.19263773 -229 504 C-233.34564184 502.50923049 -234.93038321 499.33118676 -237.125 495.5625 C-241.48467392 488.3281661 -246.0974789 481.28366679 -250.80734253 474.27484131 C-256.38728779 465.97110148 -261.92874832 457.6586032 -267.1706543 449.13574219 C-271.10442268 442.76670483 -275.20842932 436.51015778 -279.3125 430.25 C-279.67874481 429.69125183 -280.04498962 429.13250366 -280.42233276 428.55682373 C-282.25028109 425.76850316 -284.07888629 422.98061447 -285.90771484 420.19287109 C-293.34521841 408.84308444 -300.76071716 397.47755389 -308 386 C-310.97808198 387.30155261 -312.67093927 388.49322135 -314.55859375 391.1328125 C-315.25082031 392.08220703 -315.25082031 392.08220703 -315.95703125 393.05078125 C-316.44558594 393.73527344 -316.93414062 394.41976563 -317.4375 395.125 C-321.64395998 400.8828524 -325.96195967 406.49965506 -330.5 412 C-335.35372653 417.90206788 -339.99538062 423.92607724 -344.54638672 430.0637207 C-348.46150544 435.32712215 -352.52106172 440.45861653 -356.63867188 445.56445312 C-359.83075613 449.52631916 -362.97142303 453.52136239 -366.0625 457.5625 C-369.4277851 461.96212521 -372.82186395 466.33664259 -376.25 470.6875 C-382.267554 478.3273917 -388.23535577 486.00560251 -394.20166016 493.68554688 C-397.71346893 498.20522474 -401.22834744 502.72251557 -404.74267578 507.24023438 C-407.6979804 511.03955745 -410.65249055 514.83949338 -413.60546875 518.640625 C-419.32597439 526.00266704 -425.05702149 533.35572926 -430.82373047 540.68164062 C-436.31262052 547.65988806 -441.75491673 554.6743916 -447.20166016 561.68554688 C-450.71346893 566.20522474 -454.22834744 570.72251557 -457.74267578 575.24023438 C-460.6979804 579.03955745 -463.65249055 582.83949338 -466.60546875 586.640625 C-472.32597439 594.00266704 -478.05702149 601.35572926 -483.82373047 608.68164062 C-489.31262052 615.65988806 -494.75491673 622.6743916 -500.20166016 629.68554688 C-502.55290805 632.71158951 -504.90563339 635.73648131 -507.25854492 638.76123047 C-508.41639477 640.24973224 -509.57411035 641.73833845 -510.73168945 643.22705078 C-513.74605501 647.1035715 -516.76226165 650.97864058 -519.78125 654.8515625 C-520.40386719 655.65078125 -521.02648437 656.45 -521.66796875 657.2734375 C-522.84707218 658.78691355 -524.02671646 660.29996847 -525.20703125 661.8125 C-525.74714844 662.50601563 -526.28726563 663.19953125 -526.84375 663.9140625 C-527.54274414 664.8105249 -527.54274414 664.8105249 -528.25585938 665.72509766 C-530.00117583 667.8655787 -530.00117583 667.8655787 -531.01029396 669.94022942 C-533.10073312 673.5030635 -534.67077779 675.64981599 -538.76729202 676.72904396 C-542.34779132 676.98722205 -545.85177792 676.98896758 -549.44091797 676.90820312 C-550.81124234 676.90594462 -552.18157638 676.90721695 -553.55189514 676.91174316 C-557.26095344 676.91403369 -560.96793167 676.86708739 -564.67650747 676.8111515 C-568.55613172 676.76105538 -572.43580656 676.75643507 -576.31570435 676.74694824 C-583.6576933 676.72210774 -590.99872644 676.65649364 -598.34029496 676.57615232 C-606.70047824 676.48665491 -615.06070779 676.44272782 -623.42125106 676.40258884 C-640.61471976 676.31902401 -657.80725874 676.17836016 -675 676 C-673.28203695 672.42043468 -671.19866893 669.51286383 -668.75 666.375 C-668.31816406 665.81941406 -667.88632812 665.26382813 -667.44140625 664.69140625 C-666.48523315 663.46204084 -665.52746817 662.23391239 -664.56835938 661.00683594 C-662.30771129 658.11416358 -660.055215 655.21517001 -657.80175781 652.31689453 C-656.59322482 650.76283246 -655.38423488 649.20912565 -654.17480469 647.65576172 C-650.76926644 643.28104017 -647.37593721 638.89760242 -644 634.5 C-638.30530446 627.08386871 -632.55912408 619.70801416 -626.81445312 612.33056641 C-623.87486662 608.55482734 -620.93752285 604.77734465 -618 601 C-616.83334461 599.49999123 -615.66667793 597.99999124 -614.5 596.5 C-613.9225 595.7575 -613.345 595.015 -612.75 594.25 C-551.5 515.50000001 -551.5 515.50000001 -549.74902344 513.2487793 C-548.58556688 511.75288338 -547.42215522 510.25695255 -546.25878906 508.76098633 C-543.29338002 504.94790224 -540.32712738 501.13547936 -537.359375 497.32421875 C-532.22405297 490.72798614 -527.0912807 484.13031163 -522 477.5 C-516.30530446 470.08386871 -510.55912408 462.70801416 -504.81445312 455.33056641 C-501.87486662 451.55482734 -498.93752285 447.77734465 -496 444 C-494.83334461 442.49999123 -493.66667793 440.99999124 -492.5 439.5 C-491.9225 438.7575 -491.345 438.015 -490.75 437.25 C-429.5 358.5 -429.5 358.5 -427.74902344 356.2487793 C-426.58556688 354.75288338 -425.42215522 353.25695255 -424.25878906 351.76098633 C-421.29338002 347.94790224 -418.32712738 344.13547936 -415.359375 340.32421875 C-410.22405297 333.72798614 -405.0912807 327.13031163 -400 320.5 C-394.30530446 313.08386871 -388.55912408 305.70801416 -382.81445312 298.33056641 C-379.87486662 294.55482734 -376.93752285 290.77734465 -374 287 C-372.83334461 285.49999123 -371.66667793 283.99999124 -370.5 282.5 C-369.9225 281.7575 -369.345 281.015 -368.75 280.25 C-357.66666667 266 -346.58333333 251.75 -335.5 237.5 C-334.92161377 236.75621094 -334.34322754 236.01242188 -333.74731445 235.24609375 C-332.59018639 233.75865792 -331.43247927 232.27167236 -330.27416992 230.78515625 C-327.20645912 226.84658071 -324.15162867 222.89878425 -321.11328125 218.9375 C-320.47712891 218.11121094 -319.84097656 217.28492188 -319.18554688 216.43359375 C-317.96309095 214.84529336 -316.74417131 213.25426312 -315.52929688 211.66015625 C-314.97951172 210.94730469 -314.42972656 210.23445312 -313.86328125 209.5 C-313.38157471 208.8709375 -312.89986816 208.241875 -312.40356445 207.59375 C-311 206 -311 206 -308 204 C-290.16316015 230.56575428 -290.16316015 230.56575428 -283.83178711 240.86035156 C-279.89714093 247.23065221 -275.79248429 253.48860204 -271.6875 259.75 C-271.31926117 260.3117392 -270.95102234 260.87347839 -270.57162476 261.45223999 C-268.73684351 264.2506848 -266.90147329 267.04874251 -265.06591797 269.84667969 C-262.11622409 274.34895411 -259.18127906 278.86072191 -256.25 283.375 C-255.73453613 284.16849854 -255.21907227 284.96199707 -254.68798828 285.77954102 C-252.55117673 289.06950442 -250.41527365 292.36005658 -248.27978516 295.65087891 C-247.10893847 297.45505459 -245.93787823 299.25909171 -244.76660156 301.06298828 C-243.67301264 302.74724056 -242.57987398 304.43178533 -241.48730469 306.11669922 C-238.03168362 311.43826655 -234.53101974 316.72817107 -231 322 C-225.84847121 315.86327698 -221.23217138 309.51089891 -216.75 302.875 C-212.64426261 296.79684618 -208.45027657 290.83083683 -204 285 C-199.64313912 279.28719198 -195.52276437 273.45261615 -191.5 267.5 C-186.98915767 260.82794988 -182.31936953 254.32544059 -177.44702148 247.91357422 C-173.36296067 242.52586134 -169.45002337 237.03150725 -165.57006836 231.49560547 C-161.92453568 226.29751032 -158.22681573 221.14009163 -154.5 216 C-150.29295925 210.19447116 -146.12390955 204.364874 -142 198.5 C-137.33863251 191.87077288 -132.61055569 185.29271463 -127.85546875 178.73046875 C-124.20004284 173.67917614 -120.58653845 168.60039475 -117 163.5 C-110.2078953 153.84476537 -103.28179787 144.28794068 -96.35449219 134.72949219 C-90.02171736 125.98853205 -83.72809656 117.22379766 -77.51928711 108.39428711 C-73.34744926 102.47020892 -69.10686623 96.59759925 -64.85546875 90.73046875 C-61.20004284 85.67917614 -57.58653845 80.60039475 -54 75.5 C-47.2078953 65.84476537 -40.28179787 56.28794068 -33.35449219 46.72949219 C-26.962049 37.9061734 -20.60590839 29.06039355 -14.3347168 20.15039062 C-9.59012453 13.40945726 -4.80031488 6.70132454 0 0 Z " fill="#E7E5DD" transform="translate(677,2)"/>
<path d="M0 0 C36.96 0 73.92 0 112 0 C112 147.51 112 295.02 112 447 C75.04 447 38.08 447 0 447 C-4 398 -4 398 -4 386 C-4.66 386 -5.32 386 -6 386 C-6.25652344 386.71800781 -6.51304687 387.43601562 -6.77734375 388.17578125 C-17.18497392 412.21640941 -43.62072975 428.53449899 -67 438 C-97.18747619 449.74674109 -129.69420829 453.22383099 -161.875 453.25 C-162.63290833 453.25067474 -163.39081665 453.25134949 -164.17169189 453.25204468 C-213.76689979 453.18256177 -261.38557543 437.53647156 -300 406 C-300.55896973 405.54931152 -301.11793945 405.09862305 -301.69384766 404.63427734 C-343.33390579 370.88317299 -367.72541163 320.3574579 -376 268 C-376.17789063 266.93120605 -376.17789063 266.93120605 -376.359375 265.84082031 C-385.74816045 207.13296841 -371.61728105 141.34219424 -337 93 C-332.88712113 87.47883955 -328.51630602 82.19410642 -324 77 C-323.51644043 76.44199707 -323.03288086 75.88399414 -322.53466797 75.30908203 C-307.76757345 58.4098129 -290.49765477 44.97196575 -271 34 C-270.40928711 33.6601709 -269.81857422 33.3203418 -269.20996094 32.97021484 C-241.03044196 16.80911386 -207.63519112 6.98333017 -175.06640625 6.796875 C-174.2394223 6.78986069 -173.41243835 6.78284637 -172.56039429 6.77561951 C-169.89437362 6.75817487 -167.22857572 6.75176346 -164.5625 6.75 C-163.64816193 6.74932526 -162.73382385 6.74865051 -161.79177856 6.74795532 C-146.6698708 6.76564408 -131.93783913 7.45321272 -117 10 C-115.48116211 10.25740967 -115.48116211 10.25740967 -113.93164062 10.52001953 C-85.70875835 15.48877429 -56.72949751 25.01262787 -34 43 C-33.03191406 43.75023437 -32.06382812 44.50046875 -31.06640625 45.2734375 C-21.27072469 53.0621341 -12.94378525 61.55217497 -6 72 C-6 72.66 -6 73.32 -6 74 C-5.34 74 -4.68 74 -4 74 C-4.01015137 73.08391464 -4.02030273 72.16782928 -4.03076172 71.22398376 C-4.08645254 62.31888663 -3.76609706 53.5154564 -3.125 44.62890625 C-3.04636719 43.48417847 -2.96773437 42.33945068 -2.88671875 41.16003418 C-2.59675679 36.96046494 -2.29788559 32.76151463 -2 28.5625 C-1.34 19.136875 -0.68 9.71125 0 0 Z M-230.94140625 144.125 C-243.27324947 157.88121562 -251.39778785 173.92723933 -256.75 191.5625 C-256.94883789 192.21009277 -257.14767578 192.85768555 -257.35253906 193.52490234 C-260.75094142 205.3377023 -261.41025299 217.28696608 -261.375 229.5 C-261.37412384 230.24500763 -261.37324768 230.99001526 -261.37234497 231.75759888 C-261.23135462 268.23311894 -248.19515605 298.44542561 -222.30664062 324.18115234 C-195.79375695 349.66243034 -161.94241903 358.94623718 -125.95703125 358.28515625 C-117.42793918 358.0100985 -109.27887013 357.06254879 -101 355 C-100.34354492 354.83902832 -99.68708984 354.67805664 -99.01074219 354.51220703 C-77.05351408 348.89611994 -58.28618357 337.59256416 -42 322 C-41.25363281 321.31679688 -40.50726562 320.63359375 -39.73828125 319.9296875 C-18.85747293 300.17855642 -6.01437069 270.42020804 -4.87402344 241.84301758 C-4.54616103 226.73955849 -4.29720649 211.74131002 -8 197 C-8.16097168 196.34499512 -8.32194336 195.68999023 -8.48779297 195.01513672 C-16.59466617 163.31188905 -37.16016221 136.4921972 -65.15576172 119.70751953 C-119.34663007 88.09908378 -188.47072133 98.32803959 -230.94140625 144.125 Z " fill="#E7E5DD" transform="translate(2572,5)"/>
<path d="M0 0 C0.88300781 0.69222656 1.76601563 1.38445313 2.67578125 2.09765625 C13.1938152 10.48468477 23.49663582 19.54244654 32 30 C32.97189786 31.14907938 33.94464191 32.29744328 34.91796875 33.4453125 C62.85138393 66.701762 80.10323084 106.84553712 85 150 C85.0942627 150.79841309 85.18852539 151.59682617 85.28564453 152.41943359 C86.18756118 160.97231401 86.24338604 169.53425029 86.25 178.125 C86.25067474 178.91690735 86.25134949 179.7088147 86.25204468 180.52471924 C86.18474271 230.54580664 71.37439338 278.60947566 40 318 C39.22785156 318.97710937 38.45570312 319.95421875 37.66015625 320.9609375 C25.58853384 335.88762461 11.69641924 349.9030175 -4 361 C-4.59200195 361.42039551 -5.18400391 361.84079102 -5.79394531 362.27392578 C-37.98286689 384.89848112 -74.67835404 399.01974479 -113.25 406.25 C-114.05139404 406.40122314 -114.85278809 406.55244629 -115.6784668 406.70825195 C-132.92233272 409.73640134 -150.08674824 410.37248692 -167.5625 410.3125 C-169.21617584 410.30976578 -169.21617584 410.30976578 -170.90325928 410.30697632 C-187.11527089 410.26184904 -203.00428103 409.88249155 -219 407 C-219.98355469 406.82839355 -220.96710937 406.65678711 -221.98046875 406.47998047 C-244.40145065 402.4644429 -266.12495559 396.11626093 -287 387 C-288.10698242 386.51877686 -288.10698242 386.51877686 -289.23632812 386.02783203 C-342.86085646 362.43831097 -386.91609263 317.54600202 -408.25 262.8125 C-414.59797439 245.88877818 -418.76309279 227.93424962 -421 210 C-421.0942627 209.24759033 -421.18852539 208.49518066 -421.28564453 207.7199707 C-428.15368161 143.99711859 -411.31399485 83.4545473 -371.28515625 33.59765625 C-361.42173499 21.5331118 -350.38988354 10.46472786 -338 1 C-337.46358887 0.58186035 -336.92717773 0.1637207 -336.37451172 -0.26708984 C-255.49687225 -63.12096276 -133.52444516 -68.9749831 0 0 Z M-263 83 C-263.73863281 83.66644531 -264.47726563 84.33289063 -265.23828125 85.01953125 C-288.98356723 107.62275939 -301.13957201 140.43117387 -302.203125 172.796875 C-302.62047267 199.08713646 -298.06184736 223.98751917 -285 247 C-284.16855469 248.47339844 -284.16855469 248.47339844 -283.3203125 249.9765625 C-278.69831137 257.65041126 -272.96936847 264.3563507 -267 271 C-266.29230469 271.79277344 -265.58460938 272.58554687 -264.85546875 273.40234375 C-243.04969746 296.4589241 -210.80059059 310.72822811 -179.14160156 312.1262207 C-164.52228053 312.48188074 -150.2948697 312.2671207 -136 309 C-135.29262695 308.83902832 -134.58525391 308.67805664 -133.85644531 308.51220703 C-99.72901925 300.36762873 -70.53471944 277.57931807 -51.86376953 248.21289062 C-33.14562145 217.67409221 -29.95285023 178.72764141 -37.75 144.3125 C-45.34287585 113.03143335 -65.69662772 84.32196166 -93.06298828 67.17089844 C-147.87477652 34.03788402 -215.52184331 40.1351055 -263 83 Z " fill="#E7E5DD" transform="translate(4100,56)"/>
<path d="M0 0 C72.04246022 -1.63639887 142.55091003 21.11557935 195.36474609 70.97265625 C207.76360651 82.8719835 217.68861394 96.22944371 226.81005859 110.75390625 C227.30054687 111.52041504 227.79103516 112.28692383 228.29638672 113.07666016 C228.73917969 113.79901855 229.18197266 114.52137695 229.63818359 115.265625 C230.03424805 115.90330811 230.4303125 116.54099121 230.83837891 117.19799805 C231.75608015 119.57390048 231.47428677 120.7202655 230.56005859 123.06640625 C228.83740234 124.75 228.83740234 124.75 226.49755859 126.50390625 C225.59908203 127.19355469 224.70060547 127.88320312 223.77490234 128.59375 C223.0147583 129.17358643 223.0147583 129.17358643 222.23925781 129.76513672 C218.96337486 132.30373168 215.76924119 134.94440219 212.56005859 137.56640625 C207.47517914 141.70561677 202.37418327 145.82271225 197.24755859 149.91015625 C193.67167913 152.77917582 190.11629242 155.67309478 186.56005859 158.56640625 C176.33494037 166.88015478 166.027412 175.06002935 155.56005859 183.06640625 C152.88768766 180.48538603 150.56704 177.86193862 148.35693359 174.87890625 C144.52804376 169.89604855 140.27670547 165.47746946 135.81005859 161.06640625 C135.01003418 160.27387451 134.21000977 159.48134277 133.38574219 158.66479492 C127.70296402 153.08499482 121.92229247 147.86626877 115.56005859 143.06640625 C114.03139914 141.89454902 112.50275476 140.72267212 110.97412109 139.55078125 C101.08599391 132.01448136 91.12046335 124.63839261 80.56005859 118.06640625 C79.93744141 117.67759277 79.31482422 117.2887793 78.67333984 116.88818359 C57.13038652 103.63140172 34.31314821 97.83770862 9.12255859 97.81640625 C8.40663544 97.81573151 7.69071228 97.81505676 6.95309448 97.81436157 C-3.81686423 97.83049081 -13.9676512 98.34119327 -24.43994141 101.06640625 C-25.11943848 101.23269531 -25.79893555 101.39898437 -26.49902344 101.5703125 C-59.31791492 109.68673174 -87.91184921 131.07953012 -105.54492188 159.87060547 C-125.06338202 192.74891701 -128.50876138 234.46010593 -119.18603516 271.1015625 C-110.38541627 303.67279799 -89.14383166 331.93286483 -59.92431641 349.01879883 C-30.06226167 365.88920922 7.71429489 371.85063292 41.22021484 363.3125 C42.66904898 362.90494492 44.11575346 362.48973139 45.56005859 362.06640625 C46.61555908 361.76887451 46.61555908 361.76887451 47.69238281 361.46533203 C59.47377986 358.04439969 70.08011007 352.44667607 80.80126953 346.57373047 C83.59981656 345.04468362 86.41027678 343.53974725 89.22412109 342.0390625 C119.23056724 326.5994739 119.23056724 326.5994739 141.56005859 302.06640625 C146.35958624 302.64156567 150.07750934 304.04416126 154.42333984 306.13671875 C155.08005676 306.44978973 155.73677368 306.76286072 156.41339111 307.0854187 C157.82994421 307.76144346 159.2449284 308.44076373 160.65847778 309.12304688 C164.45672262 310.95581217 168.26679875 312.76369766 172.07568359 314.57421875 C172.85911636 314.94734192 173.64254913 315.32046509 174.44972229 315.70489502 C182.62877995 319.59219397 190.87004334 323.33824178 199.12255859 327.06640625 C201.84161704 328.29619428 204.56036147 329.52667374 207.27880859 330.7578125 C207.91369202 331.04530869 208.54857544 331.33280487 209.20269775 331.62901306 C216.69377354 335.02640447 224.13856256 338.51995089 231.56005859 342.06640625 C228.10005486 361.07336009 207.58241098 380.04405386 194.56005859 393.06640625 C193.87427734 393.79859375 193.18849609 394.53078125 192.48193359 395.28515625 C151.57074468 438.25662086 85.32302715 461.54367112 26.96850586 463.27319336 C20.99885242 463.39351935 15.03068026 463.40039644 9.06005859 463.37890625 C8.00657227 463.37708344 6.95308594 463.37526062 5.86767578 463.37338257 C-53.88278894 463.19962354 -114.20033839 446.96335798 -161.43994141 409.06640625 C-162.44798828 408.26203125 -163.45603516 407.45765625 -164.49462891 406.62890625 C-177.81987786 395.78315525 -190.01270468 383.60489401 -200.19726562 369.75341797 C-201.41859102 368.09539076 -202.66372057 366.45764127 -203.91259766 364.8203125 C-215.5562268 349.31160694 -224.63027634 332.19436541 -231.43994141 314.06640625 C-231.85300537 312.98359375 -231.85300537 312.98359375 -232.27441406 311.87890625 C-250.85833486 262.41139918 -250.43815531 202.52482758 -232.43994141 153.06640625 C-232.15280273 152.2657373 -231.86566406 151.46506836 -231.56982422 150.64013672 C-224.53777545 131.30390315 -214.72598633 113.55579326 -202.43994141 97.06640625 C-201.97458984 96.43879395 -201.50923828 95.81118164 -201.02978516 95.16455078 C-187.17491803 76.73701122 -170.42532567 60.15556813 -151.43994141 47.06640625 C-150.75512695 46.59058105 -150.0703125 46.11475586 -149.36474609 45.62451172 C-105.61686445 15.52866888 -52.72771715 1.43505494 0 0 Z " fill="#E7E5DD" transform="translate(3370.43994140625,2.93359375)"/>
<path d="M0 0 C0.99 0 1.98 0 3 0 C4.64696458 2.28301246 6.07966667 4.51756937 7.5 6.9375 C8.39965551 8.42401688 9.30074306 9.90966785 10.203125 11.39453125 C10.66654297 12.1623291 11.12996094 12.93012695 11.60742188 13.72119141 C13.75383489 17.23357203 15.99955891 20.67870227 18.25 24.125 C22.54116209 30.72412391 26.78048046 37.35485755 31 44 C35.0995608 50.45423983 39.21245756 56.89868249 43.375 63.3125 C51.34698202 75.59763142 59.21467034 87.94984194 67.10253906 100.2890625 C76.76834122 115.4157082 76.76834122 115.4157082 86.5 130.5 C94.42817917 142.72398545 102.25513813 155.01314688 110.10253906 167.2890625 C119.76834122 182.4157082 119.76834122 182.4157082 129.5 197.5 C137.42817917 209.72398545 145.25513813 222.01314688 153.10253906 234.2890625 C162.76834122 249.4157082 162.76834122 249.4157082 172.5 264.5 C179.00923201 274.53619567 185.4453553 284.61916746 191.88867188 294.69775391 C194.71490313 299.11815215 197.542378 303.53775374 200.37036133 307.95703125 C201.73249381 310.08573528 203.09431774 312.21463678 204.45581055 314.34375 C207.29581444 318.78346008 210.13858876 323.22110585 213.00390625 327.64453125 C213.43453369 328.31009033 213.86516113 328.97564941 214.30883789 329.66137695 C215.40182186 331.34845674 216.49764647 333.03369533 217.59375 334.71875 C219 337 219 337 219 338 C13.41 338 -192.18 338 -404 338 C-402.22977214 333.57443035 -400.7661757 331.14582157 -397.875 327.5 C-396.96793841 326.34438657 -396.06175046 325.18808709 -395.15625 324.03125 C-394.65480469 323.39316406 -394.15335937 322.75507812 -393.63671875 322.09765625 C-390.51243984 318.09350882 -387.44837973 314.04325471 -384.375 310 C-382.98709184 308.17699755 -381.59906939 306.3540821 -380.2109375 304.53125 C-379.51323242 303.61472656 -378.81552734 302.69820312 -378.09667969 301.75390625 C-374.73235411 297.33499702 -371.3661206 292.91754192 -368 288.5 C-363.96432659 283.20351871 -359.92891543 277.9068384 -355.89453125 272.609375 C-349.25278749 263.88891755 -342.60770342 255.17110621 -335.94384766 246.4675293 C-332.9278965 242.52685417 -329.91960964 238.58049549 -326.91796875 234.62890625 C-326.21542969 233.70464844 -325.51289063 232.78039062 -324.7890625 231.828125 C-323.43513672 230.04637881 -322.08219508 228.26388413 -320.73046875 226.48046875 C-316.24464224 220.57903305 -311.65510109 214.76876164 -307 209 C-303.03028938 212.8667922 -299.36503633 216.92658196 -295.75 221.125 C-294.89075928 222.11959229 -294.89075928 222.11959229 -294.01416016 223.13427734 C-290.01355991 227.78125788 -286.10203182 232.49309625 -282.2421875 237.2578125 C-279.69746317 240.37000148 -277.10381775 243.43726497 -274.5 246.5 C-270.37886052 251.34948722 -266.33008388 256.25161123 -262.3125 261.1875 C-259.73853455 264.31799851 -257.12423097 267.41165634 -254.5 270.5 C-249.59450956 276.27546311 -244.78192222 282.1216935 -240 288 C-238.31377838 290.06354879 -236.62557579 292.1254667 -234.9375 294.1875 C-233.625 295.79166667 -232.3125 297.39583333 -231 299 C-226.95122342 295.16470436 -223.6629897 291.05782388 -220.375 286.5625 C-216.44505673 281.25458003 -212.47262991 275.99223242 -208.375 270.8125 C-203.60954423 264.78357309 -198.9089136 258.70811853 -194.23388672 252.60888672 C-192.15907413 249.90350188 -190.07927147 247.20195834 -188 244.5 C-187.16664307 243.41668482 -186.33330973 242.33335149 -185.5 241.25 C-178 231.5 -178 231.5 -170.5 221.75 C-170.08782227 221.21415283 -169.67564453 220.67830566 -169.25097656 220.1262207 C-168.4144509 219.03876999 -167.57786197 217.95136793 -166.74121094 216.86401367 C-164.70620712 214.21906213 -162.67243467 211.57318888 -160.640625 208.92578125 C-155.84624905 202.68212498 -151.02588912 196.45961933 -146.1875 190.25 C-139.90305059 182.1824492 -133.68354062 174.06682722 -127.47998047 165.93701172 C-123.66746461 160.94715675 -119.8314782 155.97529632 -116 151 C-114.75233604 149.37848015 -113.50491248 147.75677566 -112.25756836 146.13500977 C-111.41863284 145.04427958 -110.57960276 143.95362212 -109.74047852 142.86303711 C-107.70570351 140.21842284 -105.67218697 137.57286614 -103.640625 134.92578125 C-98.84624905 128.68212498 -94.02588912 122.45961933 -89.1875 116.25 C-82.90305059 108.1824492 -76.68354062 100.06682722 -70.47998047 91.93701172 C-66.66746461 86.94715675 -62.8314782 81.97529632 -59 77 C-57.75233604 75.37848015 -56.50491248 73.75677566 -55.25756836 72.13500977 C-54.41863284 71.04427958 -53.57960276 69.95362212 -52.74047852 68.86303711 C-50.70570351 66.21842284 -48.67218697 63.57286614 -46.640625 60.92578125 C-41.84624905 54.68212498 -37.02588912 48.45961933 -32.1875 42.25 C-26.43582962 34.86639485 -20.73497323 27.4454906 -15.05859375 20.00390625 C-13.05765791 17.38135732 -11.05028688 14.76400153 -9.03515625 12.15234375 C-8.57399414 11.55462158 -8.11283203 10.95689941 -7.63769531 10.34106445 C-6.40115625 8.7398056 -5.16351133 7.1394009 -3.92578125 5.5390625 C-2.55820043 3.73596405 -1.25531992 1.88297988 0 0 Z " fill="#E7E5DD" transform="translate(675,339)"/>
<path d="M0 0 C36.96 0 73.92 0 112 0 C115.51861702 42.22340426 115.51861702 42.22340426 117 63 C117.39678955 62.56244385 117.7935791 62.1248877 118.20239258 61.67407227 C126.00042402 53.11322661 133.64712576 44.88736011 143 38 C144.00289062 37.25492188 145.00578125 36.50984375 146.0390625 35.7421875 C183.55372979 8.81560149 231.03120541 4.16760027 276 5 C275.35825752 10.5580803 274.0496127 15.67826896 272.42382812 21.0246582 C272.16194199 21.90028915 271.90005585 22.7759201 271.63023376 23.67808533 C270.76878369 26.55380723 269.90014635 29.42730132 269.03125 32.30078125 C268.42933999 34.30369096 267.82782393 36.30671909 267.22668457 38.30986023 C265.96882003 42.49762849 264.70765007 46.68438127 263.44384766 50.87036133 C261.82161721 56.24375099 260.20542849 61.61893323 258.59140778 66.99479389 C257.35082688 71.12582403 256.10821111 75.25623957 254.86485291 79.38643456 C254.26801305 81.36913178 253.67154626 83.35194134 253.07545471 85.33486366 C252.2442652 88.09792606 251.41061249 90.86023241 250.57617188 93.62231445 C250.32886826 94.44569305 250.08156464 95.26907166 249.82676697 96.11740112 C248.11464497 101.77071007 248.11464497 101.77071007 247 104 C246.42258057 104.01458252 245.84516113 104.02916504 245.25024414 104.04418945 C208.65227225 105.06996206 185.70393648 115.88172544 160.03295898 141.65136719 C158.31160937 143.37589228 156.57726518 145.08657257 154.84179688 146.796875 C134.39717247 167.12353534 118.04400994 192.15326397 117.84474558 221.94955868 C117.84376747 222.82797784 117.84278936 223.70639701 117.84178162 224.61143494 C117.83684364 225.56071651 117.83190566 226.50999807 117.82681805 227.48804575 C117.81149956 230.65861409 117.80309777 233.82916227 117.79467773 236.99975586 C117.78509477 239.27662329 117.77508444 241.55348896 117.76467896 243.83035278 C117.73766919 250.00534987 117.71663835 256.18035456 117.69667697 262.35537791 C117.67479319 268.81095307 117.6474162 275.26650486 117.62062073 281.72206116 C117.57639475 292.55533879 117.53555407 303.38862359 117.49731445 314.22192383 C117.45792555 325.37818335 117.41648012 336.53443215 117.37231445 347.69067383 C117.36956495 348.38584104 117.36681544 349.08100826 117.36398262 349.79724115 C117.34004648 355.84459503 117.31595497 361.89194829 117.29184818 367.93930149 C117.18832418 393.95951361 117.09500129 419.97975214 117 446 C78.39 446 39.78 446 0 446 C0 298.82 0 151.64 0 0 Z " fill="#E7E5DD" transform="translate(2799,5)"/>
<path d="M0 0 C2.625 -0.1875 2.625 -0.1875 5 0 C5.11658486 10.54540467 5.20506221 21.09065244 5.25906086 31.63657379 C5.28499633 36.53513079 5.32009552 41.43324227 5.37719727 46.33154297 C5.43209666 51.07135811 5.46154072 55.81074864 5.47438622 60.55085754 C5.4835234 62.34632539 5.50136146 64.14177379 5.52865028 65.9370575 C5.8251079 86.27594792 0.73681024 103.44791393 -13.46826172 118.6965332 C-24.2114569 129.57109409 -39.54472473 137.47786928 -55.00190353 138.12584114 C-56.12427036 138.12621817 -57.24663719 138.12659519 -58.40301514 138.12698364 C-59.69580887 138.12980347 -60.9886026 138.13262329 -62.3205719 138.13552856 C-63.7459413 138.13358447 -65.17131057 138.13153631 -66.59667969 138.12939453 C-68.1031651 138.13075006 -69.60965019 138.13253085 -71.11613464 138.13470459 C-75.20049447 138.1392593 -79.284829 138.13749783 -83.36918926 138.1343255 C-87.64084122 138.13179365 -91.91249102 138.13414158 -96.18414307 138.13571167 C-103.35307199 138.13753016 -110.52199061 138.13513463 -117.69091797 138.13037109 C-125.9894667 138.12492079 -134.28799089 138.12669798 -142.58653903 138.1321975 C-149.70676851 138.13672787 -156.82699059 138.13737981 -163.94722104 138.13475883 C-168.20219148 138.1331967 -172.45715035 138.13300071 -176.71212006 138.13629532 C-180.70773793 138.1391732 -184.70332396 138.1371999 -188.69893837 138.13140106 C-190.16917429 138.13007337 -191.63941287 138.13046773 -193.10964775 138.13266373 C-195.1080707 138.13537464 -197.10649948 138.13138093 -199.10491943 138.12698364 C-200.22577816 138.12660662 -201.34663689 138.12622959 -202.50146103 138.12584114 C-205 138 -205 138 -206 137 C-206.10027795 134.60190851 -206.13618676 132.23260502 -206.12939453 129.83398438 C-206.13114685 129.08441971 -206.13289917 128.33485504 -206.13470459 127.56257629 C-206.1391232 125.07294431 -206.1361851 122.58338277 -206.1328125 120.09375 C-206.13348554 118.37121568 -206.13445556 116.64868145 -206.13571167 114.92614746 C-206.13718865 111.31127012 -206.13503407 107.69641745 -206.13037109 104.08154297 C-206.1246738 99.43733507 -206.1279528 94.79318496 -206.13394356 90.14897919 C-206.13754916 86.59063274 -206.13641059 83.0323001 -206.13381577 79.47395325 C-206.13314649 77.76105238 -206.13397493 76.04815028 -206.13629532 74.33525085 C-206.13882183 71.94547178 -206.1349813 69.55578759 -206.12939453 67.16601562 C-206.13141876 66.45117508 -206.13344299 65.73633453 -206.13552856 64.99983215 C-206.11426269 60.11426269 -206.11426269 60.11426269 -205 59 C-203.61793419 58.89897161 -202.23077781 58.86649286 -200.84503174 58.86196899 C-199.94844849 58.85651566 -199.05186523 58.85106232 -198.12811279 58.84544373 C-197.13611877 58.8444014 -196.14412476 58.84335907 -195.12207031 58.84228516 C-194.08276367 58.83720444 -193.04345703 58.83212372 -191.97265625 58.82688904 C-189.70330918 58.81615189 -187.43395129 58.80754496 -185.16458893 58.80076981 C-181.55455529 58.78898556 -177.94464155 58.76952503 -174.33465576 58.74765015 C-164.065268 58.6860808 -153.79588696 58.63234128 -143.52636719 58.59863281 C-137.24863599 58.5774716 -130.97111434 58.54198107 -124.69350433 58.49787521 C-122.31613415 58.48386058 -119.93872678 58.47502626 -117.56131744 58.47182083 C-99.48060743 58.44490623 -81.05787213 57.90240236 -63.6875 52.3125 C-62.87684082 52.05976318 -62.06618164 51.80702637 -61.23095703 51.54663086 C-35.37913237 43.12263275 -15.71085998 26.23765471 -2 3 C-1.34 2.01 -0.68 1.02 0 0 Z " fill="#E7E5DD" transform="translate(5161,537)"/>
<path d="M0 0 C1.31173187 -0.01073296 1.31173187 -0.01073296 2.64996338 -0.02168274 C3.6171228 -0.02437164 4.58428223 -0.02706055 5.58074951 -0.02983093 C7.10046356 -0.03968773 7.10046356 -0.03968773 8.65087891 -0.04974365 C12.02431302 -0.06954768 15.39770228 -0.08116073 18.7711792 -0.09111023 C19.92348778 -0.09518576 21.07579636 -0.09926128 22.26302338 -0.10346031 C28.37283654 -0.12436052 34.48262703 -0.13863983 40.59246826 -0.147995 C46.88350929 -0.1590117 53.17419192 -0.19334539 59.46510696 -0.23316669 C64.3158429 -0.25942425 69.1664951 -0.2676954 74.01729584 -0.27127647 C76.33434189 -0.27612614 78.6513846 -0.28769344 80.9683609 -0.30631447 C97.77093088 -0.43285653 112.2949638 0.0115216 125.9430542 11.14717102 C136.55612435 21.94166118 140.24590318 32.73704285 140.25775146 47.4355011 C140.08889411 58.50115302 136.95199335 67.2724599 128.9430542 75.14717102 C116.59911409 84.94332189 101.43427725 89.47676356 85.86517334 89.40596008 C84.41961563 89.41121704 84.41961563 89.41121704 82.94485474 89.4165802 C79.7892314 89.42531697 76.63383569 89.41958025 73.47821045 89.41279602 C71.27625994 89.41414421 69.07430972 89.41608603 66.87236023 89.41859436 C62.27374416 89.42153403 57.67520609 89.41728236 53.07659912 89.40791321 C47.17266988 89.39647228 41.26892156 89.40311472 35.36499882 89.41505814 C30.82611209 89.42226794 26.28726866 89.41999368 21.74838066 89.41480255 C19.57019466 89.41346605 17.39200477 89.4151138 15.21382332 89.41976166 C12.18083302 89.42481751 9.14814128 89.41713206 6.11517334 89.40596008 C5.21078018 89.41000854 4.30638702 89.41405701 3.37458801 89.41822815 C-2.82840823 89.37570859 -2.82840823 89.37570859 -5.0569458 87.14717102 C-5.25025693 84.41162103 -5.31919736 81.77771596 -5.29986572 79.04145813 C-5.30176407 78.2039653 -5.30366241 77.36647247 -5.30561829 76.50360107 C-5.30933199 73.72714465 -5.29861427 70.95094807 -5.28741455 68.17451477 C-5.28622307 66.25162792 -5.28576952 64.32874048 -5.286026 62.40585327 C-5.28446016 58.37321843 -5.27616217 54.34067224 -5.26275635 50.30805969 C-5.24575497 45.12691583 -5.24194227 39.94586938 -5.24270153 34.76470089 C-5.24243023 30.79373232 -5.23695569 26.82278525 -5.22970009 22.85182381 C-5.22650774 20.9407575 -5.2245447 19.02968875 -5.22380638 17.11861992 C-5.22164944 14.45353376 -5.21291963 11.78855306 -5.20220947 9.12348938 C-5.20266266 8.32606323 -5.20311584 7.52863708 -5.20358276 6.70704651 C-5.16413924 0.0288907 -5.16413924 0.0288907 0 0 Z " fill="#E7E5DD" transform="translate(4960.056945800781,438.8528289794922)"/>
<path d="M0 0 C1.32 0.33 2.64 0.66 4 1 C4 53.8 4 106.6 4 161 C2.35 161.33 0.7 161.66 -1 162 C-3.61328125 159.9375 -3.61328125 159.9375 -6.3125 157 C-7.28442542 155.96813348 -8.25839061 154.93818447 -9.234375 153.91015625 C-9.70681641 153.40629395 -10.17925781 152.90243164 -10.66601562 152.38330078 C-12.37055167 150.61574931 -14.18622008 149.02013448 -16.0625 147.4375 C-20.12055113 143.97695333 -23.81620167 140.1982349 -27.5625 136.40625 C-29.65000635 134.34550655 -31.77169223 132.40484374 -34 130.5 C-38.07623219 127.01547893 -41.79550873 123.21918019 -45.5625 119.40625 C-47.65000635 117.34550655 -49.77169223 115.40484374 -52 113.5 C-56.07623219 110.01547893 -59.79550873 106.21918019 -63.5625 102.40625 C-65.65000635 100.34550655 -67.77169223 98.40484374 -70 96.5 C-73.24703484 93.68634763 -76.43632576 90.82290839 -79.5625 87.875 C-80.43003906 87.06804687 -81.29757812 86.26109375 -82.19140625 85.4296875 C-84 83 -84 83 -83.96875 80.40625 C-82.929078 77.82383891 -81.96105576 76.51488123 -79.9375 74.625 C-78.98617187 73.72587891 -78.98617187 73.72587891 -78.015625 72.80859375 C-75.42894772 70.48760232 -72.80188238 68.21632043 -70.16796875 65.94921875 C-67.68557123 63.71729738 -65.34598865 61.3747297 -63 59 C-60.10408042 56.06881809 -57.19757429 53.23596826 -54.0625 50.5625 C-50.71074927 47.69827665 -47.59443244 44.63666284 -44.5 41.5 C-40.81005412 37.75969662 -37.02496302 34.2176065 -33.02734375 30.80859375 C-29.68256946 27.82471996 -26.58664843 24.59380268 -23.4375 21.40625 C-20.75361357 18.75677237 -17.94901486 16.30985178 -15.08203125 13.86328125 C-11.63342901 10.7770087 -8.42977128 7.44841546 -5.19921875 4.13671875 C-3 2 -3 2 0 0 Z " fill="#E7E5DD" transform="translate(4877,402)"/>
<path d="M0 0 C1.93790142 1.802699 3.82555192 3.62167114 5.6875 5.5 C6.07679688 5.04109375 6.46609375 4.5821875 6.8671875 4.109375 C13.51143447 -3.17786362 21.11668546 -5.98949328 30.89453125 -6.52734375 C39.8601363 -6.4395686 46.8600806 -4.47399197 53.6875 1.5 C61.41863113 11.01523831 60.84509981 22.38966757 60.85546875 34.01953125 C60.86046135 35.96190926 60.86046135 35.96190926 60.86555481 37.94352722 C60.87151356 40.67093746 60.87339773 43.39831614 60.87280273 46.12573242 C60.8727005 49.62406695 60.88642998 53.12220131 60.90357494 56.62048817 C60.91733196 59.9618393 60.91678198 63.30315212 60.91796875 66.64453125 C60.92515427 67.90280228 60.93233978 69.1610733 60.93974304 70.45747375 C60.93666641 71.61595322 60.93358978 72.77443268 60.93041992 73.96801758 C60.93184494 74.99059158 60.93326996 76.01316559 60.93473816 77.06672668 C60.6875 79.5 60.6875 79.5 58.6875 81.5 C56.33984375 81.73046875 56.33984375 81.73046875 53.625 81.6875 C52.27728516 81.67783203 52.27728516 81.67783203 50.90234375 81.66796875 C48.6875 81.5 48.6875 81.5 47.6875 80.5 C47.58000044 78.77345908 47.54124845 77.04259046 47.52978516 75.31274414 C47.51952301 74.20391373 47.50926086 73.09508331 47.49868774 71.95265198 C47.49138641 70.74237839 47.48408508 69.5321048 47.4765625 68.28515625 C47.44847269 65.73632194 47.41980811 63.1874939 47.390625 60.63867188 C47.34834589 56.60998022 47.31159751 52.58132469 47.28613281 48.55249023 C47.25838214 44.67146277 47.21248371 40.79097374 47.1640625 36.91015625 C47.16080963 35.71810074 47.15755676 34.52604523 47.15420532 33.29786682 C47.0657182 21.91704669 47.0657182 21.91704669 42.3421936 11.85316467 C37.29219955 7.38594749 32.52777983 6.07546598 25.9609375 6.25 C19.77946278 6.9297498 15.58960999 9.81746802 11.6875 14.5 C9.81767306 18.31331876 9.42524506 21.42574378 9.38452148 25.65136719 C9.36787949 26.86902771 9.35123749 28.08668823 9.33409119 29.34124756 C9.32567703 30.64660461 9.31726288 31.95196167 9.30859375 33.296875 C9.2924096 34.65498032 9.27522864 36.01307409 9.25709534 37.37115479 C9.21153496 40.93482136 9.1766557 44.49850347 9.14489746 48.06231689 C9.09288864 53.78057561 9.02801247 59.49866583 8.95668221 65.21671295 C8.9338047 67.21594047 8.91785124 69.2152433 8.90196228 71.21453857 C8.88847244 72.41959045 8.8749826 73.62464233 8.86108398 74.86621094 C8.84681618 76.46574615 8.84681618 76.46574615 8.83226013 78.09759521 C8.6875 80.5 8.6875 80.5 7.6875 81.5 C5.85634117 81.59851171 4.02130067 81.62972629 2.1875 81.625 C1.1871875 81.62757813 0.186875 81.63015625 -0.84375 81.6328125 C-3.3125 81.5 -3.3125 81.5 -4.3125 80.5 C-4.41999956 78.77345908 -4.45875155 77.04259046 -4.47021484 75.31274414 C-4.48047699 74.20391373 -4.49073914 73.09508331 -4.50131226 71.95265198 C-4.50861359 70.74237839 -4.51591492 69.5321048 -4.5234375 68.28515625 C-4.55152731 65.73632194 -4.58019189 63.1874939 -4.609375 60.63867188 C-4.65165411 56.60998022 -4.68840249 52.58132469 -4.71386719 48.55249023 C-4.74161786 44.67146277 -4.78751629 40.79097374 -4.8359375 36.91015625 C-4.83919037 35.71810074 -4.84244324 34.52604523 -4.84579468 33.29786682 C-4.96563988 25.0711314 -5.46155909 17.19851794 -10.625 10.5 C-16.09255336 6.43112308 -21.6745831 5.75859218 -28.3125 6.5 C-33.52051547 8.1492049 -36.85803204 10.25593936 -40.3125 14.5 C-41.98530412 18.66359359 -42.57157213 22.20234503 -42.61547852 26.6730957 C-42.64044151 28.46944206 -42.64044151 28.46944206 -42.66590881 30.30207825 C-42.67432297 31.58040024 -42.68273712 32.85872223 -42.69140625 34.17578125 C-42.70759618 35.51003723 -42.72477773 36.84428151 -42.74290466 38.17851257 C-42.78840273 41.67476002 -42.82331621 45.17102333 -42.85510254 48.66741943 C-42.90096521 53.61172433 -42.95591192 58.55591686 -43.01780701 63.50004578 C-43.04986514 66.13085593 -43.0767232 68.76173529 -43.09803772 71.39265442 C-43.11152756 72.57445786 -43.1250174 73.75626129 -43.13891602 74.97387695 C-43.14842789 76.01945267 -43.15793976 77.06502838 -43.16773987 78.14228821 C-43.3125 80.5 -43.3125 80.5 -44.3125 81.5 C-46.14365883 81.59851171 -47.97869933 81.62972629 -49.8125 81.625 C-50.8128125 81.62757813 -51.813125 81.63015625 -52.84375 81.6328125 C-55.3125 81.5 -55.3125 81.5 -56.3125 80.5 C-56.40761266 77.85261911 -56.43805635 75.23140999 -56.42602539 72.58374023 C-56.42617142 71.75454071 -56.42631744 70.92534119 -56.4264679 70.0710144 C-56.42576851 67.31684802 -56.41797493 64.56274839 -56.41015625 61.80859375 C-56.40829216 59.90430234 -56.40686822 58.00001045 -56.40586853 56.09571838 C-56.40204263 51.07332037 -56.39221173 46.05095108 -56.38116455 41.02856445 C-56.37095198 35.9077188 -56.36637124 30.78686852 -56.36132812 25.66601562 C-56.35058953 15.61066443 -56.33351224 5.5553346 -56.3125 -4.5 C-52.0225 -4.5 -47.7325 -4.5 -43.3125 -4.5 C-42.9825 -2.52 -42.6525 -0.54 -42.3125 1.5 C-41.28125 0.71625 -40.25 -0.0675 -39.1875 -0.875 C-28.12907598 -8.73580744 -10.68525939 -8.69486794 0 0 Z " fill="#E7E5DD" transform="translate(2075.3125,593.5)"/>
<path d="M0 0 C8.96991922 8.08065999 11.18928229 18.9674129 12.125 30.5703125 C12.28612441 33.9115239 12.4374094 37.23552375 12.125 40.5703125 C11.125 41.5703125 11.125 41.5703125 8.84080505 41.69056702 C7.83042679 41.68834641 6.82004852 41.68612579 5.77905273 41.68383789 C4.6379454 41.68376236 3.49683807 41.68368683 2.32115173 41.68360901 C1.0795076 41.67844772 -0.16213654 41.67328644 -1.44140625 41.66796875 C-3.33704567 41.66584633 -3.33704567 41.66584633 -5.27098083 41.66368103 C-8.63624889 41.65901832 -12.0014499 41.6500273 -15.36669922 41.63897705 C-18.7984967 41.62876096 -22.23030109 41.62418299 -25.66210938 41.61914062 C-32.39975824 41.6080863 -39.13737525 41.5913296 -45.875 41.5703125 C-45.76497778 43.45640762 -45.6411532 45.34170006 -45.51171875 47.2265625 C-45.44428467 48.27650391 -45.37685059 49.32644531 -45.30737305 50.40820312 C-44.43638847 56.7780463 -41.83689835 61.86431393 -37 66.0703125 C-28.82088754 69.99628648 -21.28368429 71.01518628 -12.6875 68.0078125 C-7.18713074 65.61746511 -3.54934318 61.91899885 -0.875 56.5703125 C2.84388239 57.07743283 5.85954239 57.68639465 9.125 59.5703125 C8.82471724 65.57596772 6.23778177 69.39937018 2.125 73.5703125 C-8.37624213 81.52951772 -19.12933761 82.54689567 -31.875 81.5703125 C-40.12820485 79.9604281 -46.42876997 75.94799032 -51.875 69.5703125 C-58.37453228 59.55880801 -59.24827662 49.5520702 -59.24560547 37.89916992 C-59.24996995 35.77245396 -59.28634923 33.64783361 -59.32421875 31.52148438 C-59.4299508 19.02696371 -57.11829227 9.8167724 -48.23046875 0.66796875 C-35.42139978 -10.73911257 -13.36170867 -10.18830286 0 0 Z M-41.25 11.9453125 C-46.3544684 18.50621889 -45.875 22.86789955 -45.875 31.5703125 C-31.355 31.5703125 -16.835 31.5703125 -1.875 31.5703125 C-1.545051 20.50695803 -1.545051 20.50695803 -6.6796875 11.58984375 C-13.09064178 5.72321578 -18.2028334 4.08090841 -26.87109375 4.26171875 C-33.04991265 4.89647388 -37.08630144 7.43130277 -41.25 11.9453125 Z " fill="#E7E5DD" transform="translate(1693.875,594.4296875)"/>
<path d="M0 0 C6.62860682 6.18983379 10.10637704 15.69410323 11.25 24.5 C11.25 30.11 11.25 35.72 11.25 41.5 C-7.89 41.5 -27.03 41.5 -46.75 41.5 C-45.46706728 55.20967474 -45.46706728 55.20967474 -37.78515625 65.0546875 C-31.59528677 69.13516012 -26.10558581 70.15906049 -18.75 69.5 C-11.59191352 67.9222046 -6.7555079 65.31855165 -2.4375 59.25 C-1.880625 58.3425 -1.32375 57.435 -0.75 56.5 C3.46912747 56.9794463 6.04663178 57.66625119 9.25 60.5 C7.90133856 66.49405083 4.82141206 70.54230591 0.25 74.5 C-10.87601976 81.23378713 -22.16167065 83.53883066 -34.96484375 80.81640625 C-44.14007653 77.71510036 -50.84369973 72.94644846 -55.49609375 64.3515625 C-61.80695584 49.99975774 -62.49397093 28.81724048 -57.78515625 13.90234375 C-53.87495194 4.82771866 -47.91510486 -1.58219165 -38.6875 -5.3125 C-25.85683832 -9.49049966 -10.99874126 -8.12325335 0 0 Z M-42.125 12.1875 C-46.34156495 18.34047658 -46.75 24.17353382 -46.75 31.5 C-31.9 31.5 -17.05 31.5 -1.75 31.5 C-1.75 23.55702567 -2.63726996 17.85551242 -6.875 11.125 C-13.15470386 5.39135734 -19.44427881 3.78172417 -27.88671875 4.125 C-34.14789058 4.94501705 -38.10833673 7.35012429 -42.125 12.1875 Z " fill="#E7E5DD" transform="translate(2243.75,594.5)"/>
<path d="M0 0 C8.01324434 7.06131637 11.69320656 15.49680042 13 26 C14.68422143 58.6857611 14.68422143 58.6857611 5 70 C-3.3997197 78.71549864 -11.00385992 82.07210161 -23.125 82.3125 C-33.45419638 82.3352154 -42.55434106 79.34768975 -50 72 C-60.9356512 58.82751106 -61.14916475 41.85900813 -59.69140625 25.546875 C-58.22436633 15.42040472 -54.84313973 6.85526335 -47 0 C-32.83577607 -9.23957654 -13.94013398 -10.10906879 0 0 Z M-39.74609375 10.8359375 C-46.32748841 19.07451786 -46.36477596 27.03618596 -46.375 37.25 C-46.39949219 38.52230469 -46.42398438 39.79460938 -46.44921875 41.10546875 C-46.47494155 49.41393432 -45.97681149 57.31860452 -40.38500977 63.90112305 C-35.71200317 68.46675424 -29.93720559 70.91078839 -23.4140625 71.05859375 C-15.49333682 70.49962362 -10.30322562 68.01987773 -5 62 C2.05433044 51.54134093 1.09214311 35.99037795 -0.75 24 C-2.42555942 16.25340678 -5.64697571 11.79468538 -12.09765625 7.1640625 C-20.49639903 2.02479074 -33.0654679 3.8115658 -39.74609375 10.8359375 Z " fill="#E7E5DD" transform="translate(2565,594)"/>
<path d="M0 0 C4.71150977 3.34633733 7.27903373 6.64960119 9.125 12.1875 C9.25281786 14.86144964 9.16891871 17.50845857 9.125 20.1875 C5.165 20.1875 1.205 20.1875 -2.875 20.1875 C-3.2875 18.95 -3.7 17.7125 -4.125 16.4375 C-5.48529086 12.85645522 -6.73118463 10.5229057 -9.875 8.1875 C-17.17595893 5.24579976 -25.9731417 4.73906152 -33.55859375 6.98046875 C-36.94842502 8.60385584 -38.77948387 10.04422581 -40.875 13.1875 C-41.30900966 17.09358697 -41.39319566 19.3524867 -39.296875 22.73046875 C-36.40933673 25.6599229 -33.56280464 26.84661096 -29.75 28.125 C-29.05712891 28.37314453 -28.36425781 28.62128906 -27.65039062 28.87695312 C-23.82612735 30.23130863 -19.973224 31.48003234 -16.1015625 32.69140625 C-5.43440072 36.04816712 3.41187181 38.90386925 9.125 49.1875 C11.09525767 55.098273 10.86060187 61.14314057 8.5625 66.9375 C5.01353917 73.94886164 -0.66288258 77.78585074 -7.94140625 80.43359375 C-21.25420585 83.85485916 -34.14033549 82.46582049 -46.1953125 76.015625 C-51.16004724 72.6286048 -54.08219624 68.49593107 -55.484375 62.64453125 C-55.77755382 60.44918032 -55.98853589 58.39898173 -55.875 56.1875 C-54.875 55.1875 -54.875 55.1875 -52.15234375 55.08984375 C-51.05019531 55.10144531 -49.94804687 55.11304688 -48.8125 55.125 C-47.15541016 55.13853516 -47.15541016 55.13853516 -45.46484375 55.15234375 C-44.61019531 55.16394531 -43.75554688 55.17554688 -42.875 55.1875 C-42.71644531 55.79078125 -42.55789062 56.3940625 -42.39453125 57.015625 C-40.88471291 62.18737844 -39.73800134 65.36017364 -34.875 68.1875 C-27.7683992 70.9578698 -19.06009072 71.80829892 -11.8125 68.9375 C-7.38506132 66.29987696 -5.32256601 64.82857536 -3.9375 59.75 C-3.86492116 55.6130059 -4.1324064 54.26252918 -6.875 51.1875 C-14.1932623 47.08048444 -21.9603051 44.7604462 -29.94335938 42.27539062 C-39.09772105 39.33602307 -47.28473093 36.31880046 -52.875 28.1875 C-55.61439344 22.3505592 -56.00263481 16.13084567 -54.22265625 9.90625 C-50.99537562 2.70373529 -45.74647599 -1.34846968 -38.5 -4.1875 C-25.64837266 -8.04621726 -11.47222102 -7.07267995 0 0 Z " fill="#E7E5DD" transform="translate(2678.875,593.8125)"/>
<path d="M0 0 C4.71150977 3.34633733 7.27903373 6.64960119 9.125 12.1875 C9.25281786 14.86144964 9.16891871 17.50845857 9.125 20.1875 C5.165 20.1875 1.205 20.1875 -2.875 20.1875 C-3.2875 18.95 -3.7 17.7125 -4.125 16.4375 C-5.48529086 12.85645522 -6.73118463 10.5229057 -9.875 8.1875 C-17.20109144 5.23567338 -25.93118323 4.79142947 -33.55859375 6.9453125 C-37.35114462 8.71284997 -39.32911152 10.355748 -40.875 14.1875 C-41.33895182 17.82178928 -41.26363128 19.56992257 -39.296875 22.6953125 C-36.41444237 25.66142865 -33.58092938 26.84053394 -29.75 28.125 C-29.05712891 28.37314453 -28.36425781 28.62128906 -27.65039062 28.87695312 C-23.82612735 30.23130863 -19.973224 31.48003234 -16.1015625 32.69140625 C-5.43440072 36.04816712 3.41187181 38.90386925 9.125 49.1875 C10.98051711 54.75405132 10.70143843 60.29806293 9 65.875 C4.77213468 73.34422873 0.71284345 77.17332002 -7.4609375 80.24609375 C-20.2210137 83.76460446 -33.0774667 82.83194747 -44.71484375 76.54296875 C-49.2598292 73.69105202 -52.65677088 70.06760406 -54.875 65.1875 C-55.44829132 62.19819528 -55.84982296 59.23392229 -55.875 56.1875 C-54.875 55.1875 -54.875 55.1875 -52.15234375 55.08984375 C-51.05019531 55.10144531 -49.94804688 55.11304688 -48.8125 55.125 C-47.15541016 55.13853516 -47.15541016 55.13853516 -45.46484375 55.15234375 C-44.61019531 55.16394531 -43.75554687 55.17554688 -42.875 55.1875 C-42.73964844 55.77917969 -42.60429688 56.37085938 -42.46484375 56.98046875 C-40.98952426 62.39586303 -39.43549063 65.25590872 -34.69140625 68.3125 C-28.26878168 71.40640947 -19.91367427 71.19285988 -13.12890625 69.50390625 C-9.2899808 67.98472557 -7.26515007 66.70387509 -4.75 63.375 C-3.67259103 59.45015304 -3.71754776 57.09390132 -4.875 53.1875 C-8.40350887 49.81367316 -11.78022721 48.27719968 -16.390625 46.78515625 C-17.64230469 46.36943359 -18.89398437 45.95371094 -20.18359375 45.52539062 C-21.4970409 45.09916511 -22.81084598 44.67404105 -24.125 44.25 C-46.89598029 36.88425594 -46.89598029 36.88425594 -52.875 28.1875 C-55.61439344 22.3505592 -56.00263481 16.13084567 -54.22265625 9.90625 C-50.99537562 2.70373529 -45.74647599 -1.34846968 -38.5 -4.1875 C-25.64837266 -8.04621726 -11.47222102 -7.07267995 0 0 Z " fill="#E7E5DD" transform="translate(1805.875,593.8125)"/>
<path d="M0 0 C4.4838151 4.09889362 6.98520524 9.34094451 8.1875 15.25 C8.27945209 17.35284331 8.31540606 19.45838018 8.31689453 21.56323242 C8.32004669 22.84103073 8.32319885 24.11882904 8.32644653 25.43534851 C8.32465716 26.82538894 8.32260631 28.21542906 8.3203125 29.60546875 C8.3209862 31.03225216 8.32195678 32.45903546 8.32321167 33.88581848 C8.3246841 36.87074887 8.32254774 39.85564928 8.31787109 42.84057617 C8.31215853 46.67421685 8.3154653 50.50778775 8.32144356 54.3414259 C8.32504822 57.2846988 8.3239113 60.22795501 8.32131577 63.17122841 C8.32064703 64.585483 8.32147305 65.99973909 8.32379532 67.41399193 C8.32632192 69.3843114 8.32179128 71.35463617 8.31689453 73.32495117 C8.31609894 74.44761887 8.31530334 75.57028656 8.31448364 76.72697449 C8.1875 79.25 8.1875 79.25 7.1875 80.25 C5.35634117 80.34851171 3.52130067 80.37972629 1.6875 80.375 C0.6871875 80.37757813 -0.313125 80.38015625 -1.34375 80.3828125 C-3.8125 80.25 -3.8125 80.25 -4.8125 79.25 C-4.92007169 77.48222581 -4.95875696 75.71021603 -4.97021484 73.93920898 C-4.98047699 72.80390244 -4.99073914 71.66859589 -5.00131226 70.49888611 C-5.01226425 68.64125389 -5.01226425 68.64125389 -5.0234375 66.74609375 C-5.05151992 64.14257199 -5.08018447 61.53905645 -5.109375 58.93554688 C-5.15171785 54.81668512 -5.18846624 50.69785992 -5.21386719 46.57885742 C-5.23897967 42.61355681 -5.28743695 38.64867861 -5.3359375 34.68359375 C-5.33919037 33.45934189 -5.34244324 32.23509003 -5.34579468 30.97373962 C-5.46995338 22.29972581 -6.26302106 14.61754897 -12.8125 8.25 C-18.58758311 4.83209367 -24.18696875 4.39325027 -30.8125 5.25 C-36.13028425 6.89851312 -39.84662144 9.4589654 -42.8125 14.25 C-44.42615073 18.39951432 -45.07110825 21.88978494 -45.11547852 26.33129883 C-45.13212051 27.50884232 -45.14876251 28.6863858 -45.16590881 29.89961243 C-45.17432297 31.15606064 -45.18273712 32.41250885 -45.19140625 33.70703125 C-45.21736458 35.69074731 -45.2433277 37.67446332 -45.2695837 39.65817547 C-45.30387871 42.42335411 -45.32952796 45.18858643 -45.35510254 47.95385742 C-45.40097005 52.81468816 -45.45591427 57.6754047 -45.51780701 62.53605652 C-45.54986331 65.1223507 -45.57672196 67.70871524 -45.59803772 70.29512024 C-45.61152756 71.45690292 -45.6250174 72.61868561 -45.63891602 73.81567383 C-45.64842789 74.84348465 -45.65793976 75.87129547 -45.66773987 76.93025208 C-45.8125 79.25 -45.8125 79.25 -46.8125 80.25 C-48.64365883 80.34851171 -50.47869933 80.37972629 -52.3125 80.375 C-53.3128125 80.37757813 -54.313125 80.38015625 -55.34375 80.3828125 C-57.8125 80.25 -57.8125 80.25 -58.8125 79.25 C-58.90761266 76.60261911 -58.93805635 73.98140999 -58.92602539 71.33374023 C-58.92617142 70.50454071 -58.92631744 69.67534119 -58.9264679 68.8210144 C-58.92576851 66.06684802 -58.91797493 63.31274839 -58.91015625 60.55859375 C-58.90829216 58.65430234 -58.90686822 56.75001045 -58.90586853 54.84571838 C-58.90204263 49.82332037 -58.89221173 44.80095108 -58.88116455 39.77856445 C-58.87095198 34.6577188 -58.86637124 29.53686852 -58.86132812 24.41601562 C-58.85058953 14.36066443 -58.83351224 4.3053346 -58.8125 -5.75 C-54.5225 -5.75 -50.2325 -5.75 -45.8125 -5.75 C-45.4825 -3.44 -45.1525 -1.13 -44.8125 1.25 C-43.966875 0.486875 -43.12125 -0.27625 -42.25 -1.0625 C-30.01368752 -11.20197959 -12.0565648 -9.37449 0 0 Z " fill="#E7E5DD" transform="translate(2362.8125,594.75)"/>
<path d="M0 0 C4.86291788 4.45673449 7.115443 9.83349738 8.1875 16.25 C8.2772305 18.36018717 8.31537393 20.47286739 8.31689453 22.58496094 C8.32004669 23.84266296 8.32319885 25.10036499 8.32644653 26.3961792 C8.32465731 27.75891149 8.32260649 29.12164346 8.3203125 30.484375 C8.32098642 31.88730893 8.32195719 33.29024274 8.32321167 34.69317627 C8.32468253 37.62505206 8.32255246 40.5568973 8.31787109 43.48876953 C8.31215305 47.25400069 8.31546972 51.01916089 8.32144356 54.7843895 C8.32504773 57.67704814 8.32391162 60.5696898 8.32131577 63.46234894 C8.32064719 64.85148375 8.32147252 66.24062008 8.32379532 67.62975311 C8.32632171 69.56404086 8.32179149 71.49833399 8.31689453 73.43261719 C8.31609894 74.53450378 8.31530334 75.63639038 8.31448364 76.77166748 C8.1875 79.25 8.1875 79.25 7.1875 80.25 C5.35634117 80.34851171 3.52130067 80.37972629 1.6875 80.375 C0.6871875 80.37757813 -0.313125 80.38015625 -1.34375 80.3828125 C-3.8125 80.25 -3.8125 80.25 -4.8125 79.25 C-4.91483079 77.49265751 -4.94820839 75.73125592 -4.9543457 73.97094727 C-4.96138016 72.8420961 -4.96841461 71.71324493 -4.97566223 70.55018616 C-4.97982651 69.31803879 -4.98399078 68.08589142 -4.98828125 66.81640625 C-5.01149579 64.22199724 -5.03561377 61.62759619 -5.06054688 59.03320312 C-5.09681465 54.9320487 -5.12662011 50.83103932 -5.13842773 46.72973633 C-5.15054709 42.7791829 -5.19425183 38.82923585 -5.23828125 34.87890625 C-5.23637283 33.66497696 -5.23446442 32.45104767 -5.23249817 31.20033264 C-5.35141187 22.85578604 -6.19774214 14.95744396 -12.25 8.75 C-18.41639433 5.14040332 -23.75061686 4.448862 -30.8125 5.25 C-36.12923007 6.88387884 -39.8516214 9.46704226 -42.8125 14.25 C-44.42615073 18.39951432 -45.07110825 21.88978494 -45.11547852 26.33129883 C-45.13212051 27.50884232 -45.14876251 28.6863858 -45.16590881 29.89961243 C-45.17432297 31.15606064 -45.18273712 32.41250885 -45.19140625 33.70703125 C-45.21736458 35.69074731 -45.2433277 37.67446332 -45.2695837 39.65817547 C-45.30387871 42.42335411 -45.32952796 45.18858643 -45.35510254 47.95385742 C-45.40097005 52.81468816 -45.45591427 57.6754047 -45.51780701 62.53605652 C-45.54986331 65.1223507 -45.57672196 67.70871524 -45.59803772 70.29512024 C-45.61152756 71.45690292 -45.6250174 72.61868561 -45.63891602 73.81567383 C-45.64842789 74.84348465 -45.65793976 75.87129547 -45.66773987 76.93025208 C-45.8125 79.25 -45.8125 79.25 -46.8125 80.25 C-48.64365883 80.34851171 -50.47869933 80.37972629 -52.3125 80.375 C-53.3128125 80.37757813 -54.313125 80.38015625 -55.34375 80.3828125 C-57.8125 80.25 -57.8125 80.25 -58.8125 79.25 C-58.90761266 76.60261911 -58.93805635 73.98140999 -58.92602539 71.33374023 C-58.92617142 70.50454071 -58.92631744 69.67534119 -58.9264679 68.8210144 C-58.92576851 66.06684802 -58.91797493 63.31274839 -58.91015625 60.55859375 C-58.90829216 58.65430234 -58.90686822 56.75001045 -58.90586853 54.84571838 C-58.90204263 49.82332037 -58.89221173 44.80095108 -58.88116455 39.77856445 C-58.87095198 34.6577188 -58.86637124 29.53686852 -58.86132812 24.41601562 C-58.85058953 14.36066443 -58.83351224 4.3053346 -58.8125 -5.75 C-54.5225 -5.75 -50.2325 -5.75 -45.8125 -5.75 C-45.4825 -3.44 -45.1525 -1.13 -44.8125 1.25 C-43.966875 0.486875 -43.12125 -0.27625 -42.25 -1.0625 C-30.01368752 -11.20197959 -12.0565648 -9.37449 0 0 Z " fill="#E7E5DD" transform="translate(1474.8125,594.75)"/>
<path d="M0 0 C4.29 0 8.58 0 13 0 C16.34860254 7.15052381 18.90569126 14.40029126 21.328125 21.91015625 C21.72199402 23.11820419 22.11586304 24.32625214 22.52166748 25.57090759 C23.55748952 28.75080406 24.58916244 31.9319834 25.61877441 35.1138916 C26.67461577 38.37329898 27.73599209 41.63090272 28.796875 44.88867188 C30.86963476 51.25748174 32.9369346 57.62804364 35 64 C36.79556813 61.3066478 37.65282811 59.37965994 38.63232422 56.35180664 C38.93959442 55.40974869 39.24686462 54.46769073 39.56344604 53.49708557 C39.89055573 52.4783989 40.21766541 51.45971222 40.5546875 50.41015625 C40.89750763 49.35525497 41.24032776 48.3003537 41.59353638 47.21348572 C42.69169771 43.83121307 43.7834977 40.4469268 44.875 37.0625 C45.96078329 33.71068166 47.04785265 30.35928237 48.13504028 27.00791931 C48.81071139 24.92345686 49.48532351 22.83865071 50.15866089 20.75343323 C52.39849413 13.82176186 54.68843601 6.90809648 57 0 C61.62 0 66.24 0 71 0 C70.3787771 6.47182764 68.39431811 12.27178018 66.28125 18.3984375 C65.9044812 19.50563141 65.5277124 20.61282532 65.13952637 21.75357056 C64.33875145 24.10297859 63.53500972 26.4513772 62.72851562 28.79882812 C61.52622618 32.29865639 60.33254477 35.80131599 59.140625 39.3046875 C55.16723835 50.95434614 51.11771807 62.57572762 46.96875 74.1640625 C46.58464966 75.24126556 46.20054932 76.31846863 45.80480957 77.42831421 C45.45092163 78.41054962 45.09703369 79.39278503 44.73242188 80.40478516 C44.421073 81.27108551 44.10972412 82.13738586 43.78894043 83.02993774 C43 85 43 85 42 86 C39.81360547 86.07258946 37.62499611 86.08373783 35.4375 86.0625 C33.64119141 86.04896484 33.64119141 86.04896484 31.80859375 86.03515625 C30.41833984 86.01775391 30.41833984 86.01775391 29 86 C25.45988782 79.40115491 23.02555879 72.66287679 20.6640625 65.56640625 C20.26222748 64.37506577 19.86039246 63.18372528 19.44638062 61.95628357 C18.38258122 58.79958373 17.323677 55.64133363 16.26739502 52.4821167 C14.79546771 48.08367623 13.31439289 43.68830767 11.83441162 39.29257202 C11.01792242 36.86620575 10.20300016 34.43931158 9.38970947 32.01187134 C7.65897225 26.85773284 5.91470547 21.71262886 4.06152344 16.60107422 C3.7765097 15.81393539 3.49149597 15.02679657 3.19784546 14.21580505 C2.68710395 12.81759778 2.16955653 11.42184552 1.64321899 10.0294342 C0.28587559 6.32405696 0 4.09849299 0 0 Z " fill="#E7E5DD" transform="translate(1525,589)"/>
<path d="M0 0 C3.09244792 0.03255208 6.18489583 0.06510417 9.27734375 0.09765625 C9.27734375 7.35765625 9.27734375 14.61765625 9.27734375 22.09765625 C16.53734375 22.09765625 23.79734375 22.09765625 31.27734375 22.09765625 C31.27734375 25.39765625 31.27734375 28.69765625 31.27734375 32.09765625 C28.87674558 33.29795533 27.38373726 33.21225368 24.70703125 33.1953125 C23.81113281 33.19208984 22.91523437 33.18886719 21.9921875 33.18554688 C20.58646484 33.17297852 20.58646484 33.17297852 19.15234375 33.16015625 C18.20746094 33.15564453 17.26257812 33.15113281 16.2890625 33.14648438 C13.95175988 33.13467982 11.61458314 33.11821384 9.27734375 33.09765625 C9.36978255 40.678444 9.4771107 48.25891682 9.59472656 55.83935547 C9.63297792 58.41743199 9.66783746 60.99556117 9.69921875 63.57373047 C9.74495208 67.28241787 9.80293416 70.99074388 9.86328125 74.69921875 C9.87483246 75.84943512 9.88638367 76.99965149 9.89828491 78.1847229 C9.96373779 85.85623604 9.96373779 85.85623604 12.27734375 93.09765625 C17.57257241 96.02396683 24.33782192 95.73244293 30.27734375 96.09765625 C30.27734375 99.72765625 30.27734375 103.35765625 30.27734375 107.09765625 C23.9892376 110.24170932 13.79747568 107.75090908 7.27734375 106.09765625 C3.37716359 104.36934112 0.40081633 101.81373327 -1.72265625 98.09765625 C-4.27133182 91.40023189 -3.97737772 84.82019645 -3.91796875 77.7265625 C-3.91513885 76.44909653 -3.91230896 75.17163055 -3.90939331 73.85545349 C-3.90012632 70.48032047 -3.88219691 67.10546421 -3.85998535 63.73040771 C-3.83942488 60.27797826 -3.83036991 56.82552007 -3.8203125 53.37304688 C-3.79830539 46.61450762 -3.7648675 39.85609789 -3.72265625 33.09765625 C-4.87894531 33.13246094 -4.87894531 33.13246094 -6.05859375 33.16796875 C-7.06148437 33.18601562 -8.064375 33.2040625 -9.09765625 33.22265625 C-10.09539062 33.24585938 -11.093125 33.2690625 -12.12109375 33.29296875 C-14.72265625 33.09765625 -14.72265625 33.09765625 -16.72265625 31.09765625 C-17.05017859 28.38310669 -16.85349875 25.84534866 -16.72265625 23.09765625 C-15.72265625 22.09765625 -15.72265625 22.09765625 -13 22 C-11.89785156 22.01160156 -10.79570313 22.02320313 -9.66015625 22.03515625 C-8.00306641 22.04869141 -8.00306641 22.04869141 -6.3125 22.0625 C-5.45785156 22.07410156 -4.60320312 22.08570313 -3.72265625 22.09765625 C-3.72789307 21.46674072 -3.73312988 20.8358252 -3.73852539 20.18579102 C-3.75923451 17.34392278 -3.77229691 14.50207037 -3.78515625 11.66015625 C-3.79353516 10.66693359 -3.80191406 9.67371094 -3.81054688 8.65039062 C-3.81376953 7.70615234 -3.81699219 6.76191406 -3.8203125 5.7890625 C-3.82554932 4.91451416 -3.83078613 4.03996582 -3.83618164 3.13891602 C-3.6599308 -0.03018786 -3.20527528 0.11496683 0 0 Z " fill="#E7E5DD" transform="translate(1871.72265625,566.90234375)"/>
<path d="M0 0 C3.96 0 7.92 0 12 0 C13.20029908 2.40059817 13.11459743 3.89360649 13.09765625 6.5703125 C13.09515869 7.37742676 13.09266113 8.18454102 13.09008789 9.01611328 C13.08098389 10.0420459 13.07187988 11.06797852 13.0625 12.125 C13.041875 15.38375 13.02125 18.6425 13 22 C19.93 22 26.86 22 34 22 C34 25.3 34 28.6 34 32 C33 33 33 33 31.05053711 33.11352539 C30.2178833 33.10828857 29.38522949 33.10305176 28.52734375 33.09765625 C27.62822266 33.09443359 26.72910156 33.09121094 25.80273438 33.08789062 C24.38444336 33.07532227 24.38444336 33.07532227 22.9375 33.0625 C21.98810547 33.05798828 21.03871094 33.05347656 20.06054688 33.04882812 C17.70696935 33.0370011 15.35351523 33.02052025 13 33 C13.01627164 40.88415692 13.0710435 48.76737278 13.15258789 56.65112305 C13.17856016 59.33316613 13.19228221 62.01485693 13.19555664 64.69702148 C13.2048332 68.55250061 13.24580056 72.40654002 13.29296875 76.26171875 C13.2890361 77.46084396 13.28510345 78.65996918 13.28105164 79.89543152 C13.17729504 86.64389422 13.17729504 86.64389422 16.41918945 92.23364258 C21.04747276 95.40133057 24.82186747 95.35080211 30.34765625 95.71875 C33 96 33 96 34 97 C34.07205511 98.68608966 34.08386068 100.37500659 34.0625 102.0625 C34.05347656 102.98160156 34.04445313 103.90070313 34.03515625 104.84765625 C34.02355469 105.55792969 34.01195313 106.26820313 34 107 C27.58350966 110.20824517 17.61225354 107.76461981 11 106 C6.73821974 104.50048472 4.37200392 102.56060438 1.83300781 98.734375 C-1.01211153 92.71771952 -0.49473811 86.39562918 -0.390625 79.875 C-0.38315124 78.51880737 -0.37746368 77.16260384 -0.37347412 75.80639648 C-0.3583066 72.2617536 -0.31910436 68.7177814 -0.2746582 65.17340088 C-0.23351146 61.54668242 -0.21542202 57.91985406 -0.1953125 54.29296875 C-0.15259919 47.19504053 -0.08445833 40.09756439 0 33 C-1.28197266 33.01740234 -1.28197266 33.01740234 -2.58984375 33.03515625 C-3.69457031 33.04417969 -4.79929687 33.05320312 -5.9375 33.0625 C-7.03964844 33.07410156 -8.14179688 33.08570313 -9.27734375 33.09765625 C-12 33 -12 33 -13 32 C-13.14257189 28.66381769 -13.04228157 25.34024394 -13 22 C-9.04 21.67 -5.08 21.34 -1 21 C-0.67 14.07 -0.34 7.14 0 0 Z " fill="#E7E5DD" transform="translate(2428,567)"/>
<path d="M0 0 C1.97909398 -0.02686553 3.95828971 -0.04633375 5.9375 -0.0625 C7.03964844 -0.07410156 8.14179687 -0.08570313 9.27734375 -0.09765625 C12 0 12 0 13 1 C13.10041457 3.61150288 13.13617057 6.19658365 13.12939453 8.80859375 C13.13114685 9.62643341 13.13289917 10.44427307 13.13470459 11.28689575 C13.13912385 14.0037851 13.13618486 16.72060993 13.1328125 19.4375 C13.13348552 21.31697604 13.13445553 23.19645199 13.13571167 25.07592773 C13.13718874 29.02035346 13.13503379 32.96475658 13.13037109 36.90917969 C13.1246738 41.97712503 13.12795276 47.04501742 13.13394356 52.11296082 C13.13754892 55.99556887 13.1364107 59.87816428 13.13381577 63.76077271 C13.13314643 65.62997443 13.13397516 67.49917728 13.13629532 69.36837769 C13.13882143 71.97608504 13.13498184 74.58370541 13.12939453 77.19140625 C13.13141876 77.97170197 13.13344299 78.75199768 13.13552856 79.55593872 C13.11426253 84.88573747 13.11426253 84.88573747 12 86 C10.16884117 86.09851171 8.33380067 86.12972629 6.5 86.125 C5.4996875 86.12757813 4.499375 86.13015625 3.46875 86.1328125 C1 86 1 86 0 85 C-0.09511266 82.35261911 -0.12555635 79.73140999 -0.11352539 77.08374023 C-0.11367142 76.25454071 -0.11381744 75.42534119 -0.1139679 74.5710144 C-0.11326851 71.81684802 -0.10547493 69.06274839 -0.09765625 66.30859375 C-0.09579216 64.40430234 -0.09436822 62.50001045 -0.09336853 60.59571838 C-0.08954263 55.57332037 -0.07971173 50.55095108 -0.06866455 45.52856445 C-0.05845198 40.4077188 -0.05387124 35.28686852 -0.04882812 30.16601562 C-0.03808953 20.11066443 -0.02101224 10.0553346 0 0 Z " fill="#E7E5DD" transform="translate(1953,589)"/>
<path d="M0 0 C1.97909398 -0.02686553 3.95828971 -0.04633375 5.9375 -0.0625 C7.03964844 -0.07410156 8.14179687 -0.08570313 9.27734375 -0.09765625 C12 0 12 0 13 1 C13.10041457 3.61150288 13.13617057 6.19658365 13.12939453 8.80859375 C13.13114685 9.62643341 13.13289917 10.44427307 13.13470459 11.28689575 C13.13912385 14.0037851 13.13618486 16.72060993 13.1328125 19.4375 C13.13348552 21.31697604 13.13445553 23.19645199 13.13571167 25.07592773 C13.13718874 29.02035346 13.13503379 32.96475658 13.13037109 36.90917969 C13.1246738 41.97712503 13.12795276 47.04501742 13.13394356 52.11296082 C13.13754892 55.99556887 13.1364107 59.87816428 13.13381577 63.76077271 C13.13314643 65.62997443 13.13397516 67.49917728 13.13629532 69.36837769 C13.13882143 71.97608504 13.13498184 74.58370541 13.12939453 77.19140625 C13.13141876 77.97170197 13.13344299 78.75199768 13.13552856 79.55593872 C13.11426253 84.88573747 13.11426253 84.88573747 12 86 C10.16884117 86.09851171 8.33380067 86.12972629 6.5 86.125 C5.4996875 86.12757813 4.499375 86.13015625 3.46875 86.1328125 C1 86 1 86 0 85 C-0.09511266 82.35261911 -0.12555635 79.73140999 -0.11352539 77.08374023 C-0.11367142 76.25454071 -0.11381744 75.42534119 -0.1139679 74.5710144 C-0.11326851 71.81684802 -0.10547493 69.06274839 -0.09765625 66.30859375 C-0.09579216 64.40430234 -0.09436822 62.50001045 -0.09336853 60.59571838 C-0.08954263 55.57332037 -0.07971173 50.55095108 -0.06866455 45.52856445 C-0.05845198 40.4077188 -0.05387124 35.28686852 -0.04882812 30.16601562 C-0.03808953 20.11066443 -0.02101224 10.0553346 0 0 Z " fill="#E7E5DD" transform="translate(1350,589)"/>
<path d="M0 0 C2.9375 1.5 2.9375 1.5 5 4 C6.12472916 7.61097257 6.39272667 10.75636554 5.25 14.375 C3.39714976 16.78370531 1.66476881 17.9045574 -1.33984375 18.3359375 C-8.39587426 18.44204322 -8.39587426 18.44204322 -11.5625 16.125 C-13.99191123 12.53369644 -14.42819078 10.36754597 -14 6 C-10.17629794 0.26444691 -6.80538916 -0.89956294 0 0 Z " fill="#E7E5DD" transform="translate(1963,556)"/>
<path d="M0 0 C2.8100346 1.79363911 4.50940468 3.01880935 6 6 C6.41314256 10.6478538 5.78987316 13.24440152 3 17 C-0.70269361 18.8513468 -4.95801246 18.45709067 -9 18 C-12.460675 15.88983232 -12.87262936 14.46702569 -13.9375 10.5625 C-14.00754154 6.57013213 -13.46465254 5.08081567 -11 2 C-7.31502204 -0.45665197 -4.28028214 -0.70086491 0 0 Z " fill="#E7E5DD" transform="translate(1360,556)"/>
</svg>
